<?xml version="1.0" encoding="UTF-8" standalone="no"?>
<!-- Creator: CorelDRAW 2017 -->

<svg
   xml:space="preserve"
   width="2469.2563mm"
   height="498.88556mm"
   version="1.1"
   style="clip-rule:evenodd;fill-rule:evenodd;image-rendering:optimizeQuality;shape-rendering:geometricPrecision;text-rendering:geometricPrecision"
   viewBox="0 0 246925.64 49888.556"
   id="svg91"
   sodipodi:docname="nb5.svg"
   inkscape:version="1.1.2 (1:1.1+202202050950+0a00cf5339)"
   xmlns:inkscape="http://www.inkscape.org/namespaces/inkscape"
   xmlns:sodipodi="http://sodipodi.sourceforge.net/DTD/sodipodi-0.dtd"
   xmlns="http://www.w3.org/2000/svg"
   xmlns:svg="http://www.w3.org/2000/svg"><sodipodi:namedview
   id="namedview93"
   pagecolor="#ffffff"
   bordercolor="#666666"
   borderopacity="1.0"
   inkscape:pageshadow="2"
   inkscape:pageopacity="0.0"
   inkscape:pagecheckerboard="0"
   inkscape:document-units="mm"
   showgrid="false"
   inkscape:zoom="0.11887912"
   inkscape:cx="5379.414"
   inkscape:cy="-201.88575"
   inkscape:window-width="1920"
   inkscape:window-height="1015"
   inkscape:window-x="0"
   inkscape:window-y="0"
   inkscape:window-maximized="1"
   inkscape:current-layer="Layer_x0020_1" />
 <defs
   id="defs4"><rect
   x="-802.93701"
   y="-1902.8286"
   width="10416.236"
   height="706.01672"
   id="rect21149" /><rect
   x="-1611.2162"
   y="-1944.5626"
   width="9339.9365"
   height="763.4422"
   id="rect11111" />
  <style
   type="text/css"
   id="style2">
   <![CDATA[
    .fil0 {fill:#484748}
    .fil1 {fill:#E96111}
    .fil2 {fill:white}
   ]]>
  </style>
 
   
   
   
  </defs>
 <g
   id="Layer_x0020_1"
   inkscape:label="Layer 1"
   inkscape:groupmode="layer"
   transform="translate(40506.767,29351.646)">
  <metadata
   id="CorelCorpID_0Corel-Layer" />
  <g
   id="g87"
   transform="translate(6175.2994,-8140.581)">
    
    
    
    
    
    
    
    
    
    
    
   <g
   id="g116859"
   transform="translate(288.78844,205.04129)"><g
     id="g47"
     transform="translate(-5.4630176e-5,4.1140209e-5)"
     style="clip-rule:evenodd;fill-rule:evenodd;image-rendering:optimizeQuality;shape-rendering:geometricPrecision;text-rendering:geometricPrecision">
    <path
   class="fil0"
   d="m 153687.41,-15832.64 c 3263.91,-335.15 6948.28,523.44 9510.32,2637.94 1581.74,1305.44 2560.49,-44.22 3618.28,-1253.17 1335.45,-1526.27 -409.74,-2550.45 -1543.61,-3401.09 -5222.14,-3917.73 -13491.09,-4449.48 -19308.28,-1642.1 -5907.78,2851.1 -9335.6,8425.7 -9461.44,14954.38 -135.68,7039.49 3070.76,11721.05 8780.26,15471.11 5262.27,3456.31 14078.18,3290.96 19405.1,89.81 1036.12,-622.65 3234.84,-1739 2271,-3186.96 -141.91,-213.18 -2936.16,-2894.07 -3102.43,-2975.4 -395.96,-193.69 -2922.86,1827.27 -3578.32,2151.91 -1496.07,740.99 -3116.75,1145.59 -4778.04,1275.32 -17247.24,1346.8 -17419.67,-22519.23 -1812.84,-24121.75 z"
   id="path7" />
    
    
    
    
    
    
    
    <polygon
   class="fil0"
   points="171352.28,-6314.56 149774.88,-6295.85 149810.88,-1654.95 171387.29,-1654.25 "
   id="polygon23" />
    
    
    
    
    
    
    
    
    
    
    
   </g><g
     id="g118149"
     inkscape:label="letters"><g
       id="g63"
       transform="translate(-5.4630176e-5,4.1140209e-5)"
       style="clip-rule:evenodd;fill-rule:evenodd;image-rendering:optimizeQuality;shape-rendering:geometricPrecision;text-rendering:geometricPrecision"
       inkscape:label="o">
    <path
   class="fil1"
   d="m -46968.79,12631.32 7079.74,-8.12 42.11,-21597.63 c 1263.21,1673.7 2777.87,4563.85 3919.38,6458.23 l 7794.68,12971.59 c 1201.89,2048.24 687.32,2168.07 3030.64,2176.11 1729.45,5.93 3465.82,9.58 5195.63,-3.15 l -4.11,-33457.85 -7075,7.89 -44.67,21766.74 c -1226.1,-1658.7 -2734.45,-4728 -3837.24,-6632.55 -1269.96,-2193.26 -2524.88,-4395.22 -3790.54,-6590.97 -1275.71,-2213.19 -2540.93,-4432.88 -3815.59,-6646.73 -1291.38,-2242.87 -597.95,-1906.92 -3303.49,-1904.49 -1730.49,1.55 -3461.04,0.16 -5191.54,0.16 z"
   id="path49" />
    <path
   class="fil1"
   d="m 23355.01,6660.44 0.78,-8333.42 c 2346.75,-24.51 5924.34,-196.49 8127.96,110.39 2357.22,328.28 4291.19,1380.41 4236.4,4034.64 -50.88,2464.8 -1951.21,3721.38 -4195.2,4071.39 -2049.18,319.62 -5969.19,160 -8169.94,117 z m 22.16,-14207.45 -24.66,-7262.9 c 947.73,-197.18 6121.08,-117.15 7316.92,-42.21 2200.51,137.91 3825.86,1285.64 3791.33,3636.32 -34.94,2378.32 -1476.72,3494.63 -3755.94,3653.15 -2209.65,153.67 -5064.86,41.96 -7327.65,15.64 z m -6908.34,-9253.8 -1.09,29385.31 c 4373.03,115.63 9443.01,95.28 13804.21,44.37 7028.86,-82.04 13038.2,-3334.06 12286.76,-11038.37 -540.15,-5538.1 -4908.48,-6274.84 -5017.81,-6782.47 0.94,-118.23 1346.55,-1106.58 1504.28,-1264.53 1711.7,-1713.98 2359.56,-3659.13 2170.47,-6100.32 -221.12,-2854.7 -1651.2,-5426.36 -4193.85,-6824.18 -2972.8,-1634.3 -6305.59,-1448.45 -9580.3,-1448.45 -3033.98,-0.01 -8189.22,-307.26 -10971.87,47.69 z"
   id="path51" />
    <path
   class="fil1"
   d="m 112933.39,-14623.16 c 8234.85,-71.54 13615.96,719.56 13532.76,10564.3 -27.06,3202.38 -773.83,6541.12 -3406.05,8622.34 -2753.3,2176.94 -6818.24,1883.59 -10124.98,1856.28 z m -7079.48,27254.48 c 6132.28,0 14765.97,803.45 20219.46,-2064.5 5637.79,-2964.87 7454.13,-8662.26 7472.71,-14696.55 18.67,-6068.66 -1840.96,-11714.48 -7510.64,-14671.96 -5404.75,-2819.29 -14101.02,-2027.76 -20178.99,-2027.76 z"
   id="path53" />
    <path
   class="fil1"
   d="m 85301.5,-5798.03 -13.45,-8829.08 c 3727.23,0 10724.13,-1186.81 10623.25,4434.65 -98.99,5515.95 -6874.08,4394.43 -10609.8,4394.43 z m 18816.57,18410.67 C 102136.06,8832.87 99663.14,4803.95 97478.54,1099.72 c -806.53,-1367.55 -1648.56,-1803.31 -149.5,-2444.74 895.58,-383.21 1970.34,-1211.65 2671.57,-1891.09 1789.34,-1733.74 2742.45,-3598.74 2950.63,-6107.77 430.48,-5188.26 -2475.94,-9220.22 -7353.01,-10800.08 -3060.07,-991.28 -13841.71,-882.09 -17388.08,-644.26 l -1.33,33416.98 7081.01,2.56 -0.39,-12220.52 4208.29,29.7 6981.75,12191.25 z"
   id="path55" />
    <path
   class="fil1"
   d="m 180785.91,-14627.11 c 3729.63,0 10718.91,-1185.75 10622.2,4434.9 -94.93,5516.76 -6877.52,4394.18 -10621.4,4394.18 z m 18829.26,27245.43 c -2020.14,-3816.95 -4446.88,-7776.04 -6639.3,-11526.58 -794.78,-1359.63 -1660.86,-1799.2 -153.84,-2433.66 822.93,-346.46 1989.55,-1222.89 2634.41,-1850.21 1785.28,-1736.68 2761.67,-3554.9 2984.69,-6069.69 461.77,-5206.75 -2397.28,-9250.8 -7291.49,-10863.32 -3692.51,-1216.58 -13121.19,-700.6 -17439.82,-705.11 l -6.56,33466.75 7083.5,-50.35 -0.28,-12179.05 4204.62,28.78 7035.53,12194.45 z"
   id="path57" />
    <path
   class="fil1"
   d="m 58380.64,-15405.82 c 6719.21,-902.83 9594.75,3875.54 9941.99,9877.5 302.19,5223.4 -877.43,11898.39 -7114.98,12735.07 -6722.28,901.69 -9613.79,-3880.66 -9973.45,-9885.42 -315.72,-5271.09 884.93,-11885.82 7146.44,-12727.15 z M 44150.11,-2721.91 c 518.93,10002.4 6722.31,16567.74 17027.83,15888.25 10255.69,-676.2 14754.49,-9240.56 14224.72,-18706.69 -556.66,-9946.72 -6725.43,-16491.88 -16985.38,-15829.76 -10273.95,663.03 -14759.24,9163.74 -14267.17,18648.2 z"
   id="path59" />
    <path
   class="fil1"
   d="m -3268.92,-15396.03 c 6668.67,-970.43 9622.37,3831.87 9990.84,9785.64 322.12,5204.72 -830.25,11925.55 -7040.04,12807.96 -6699.57,952.02 -9652.19,-3781.24 -10036.72,-9781.08 -339.51,-5297.49 823.47,-11901.21 7085.92,-12812.52 z m -14180.43,12595.46 c 484.64,9990.68 6656.09,16624.45 16965.31,15971.85 10261.86,-649.6 14785.65,-9145.56 14296.37,-18628.27 -512.77,-9938 -6647.45,-16533.68 -16903.05,-15918.06 -10284.66,617.36 -14819.59,9072 -14358.63,18574.48 z"
   id="path61" />
   </g><text
       xml:space="preserve"
       transform="matrix(26.458333,0,0,26.458333,-26190.263,66818.538)"
       id="text21147"
       style="font-style:normal;font-variant:normal;font-weight:bold;font-stretch:normal;font-size:478.667px;line-height:1.25;font-family:Manjari;-inkscape-font-specification:'Manjari Bold';text-align:justify;letter-spacing:732px;white-space:pre;shape-inside:url(#rect21149);fill:#000000;fill-opacity:1;stroke:none"
       x="0"
       y="0"><tspan
         x="-802.9375"
         y="-1543.8279"
         id="tspan120205"><tspan
           dx="0 0 0 0 -0.00015258789 0 -0.00018310547 0.00025939941"
           id="tspan120203">ELECTRICAL</tspan></tspan></text></g></g></g>
 </g>
</svg>
