<?xml version="1.0" encoding="UTF-8" standalone="no"?>
<!-- Creator: CorelDRAW 2017 -->

<svg
   xml:space="preserve"
   width="2469.2563mm"
   height="498.88556mm"
   version="1.1"
   style="clip-rule:evenodd;fill-rule:evenodd;image-rendering:optimizeQuality;shape-rendering:geometricPrecision;text-rendering:geometricPrecision"
   viewBox="0 0 246925.64 49888.556"
   id="svg91"
   sodipodi:docname="logob.svg"
   inkscape:version="1.2 (1:1.2.1+202207142221+cd75a1ee6d)"
   xmlns:inkscape="http://www.inkscape.org/namespaces/inkscape"
   xmlns:sodipodi="http://sodipodi.sourceforge.net/DTD/sodipodi-0.dtd"
   xmlns="http://www.w3.org/2000/svg"
   xmlns:svg="http://www.w3.org/2000/svg"><sodipodi:namedview
   id="namedview93"
   pagecolor="#ffffff"
   bordercolor="#666666"
   borderopacity="1.0"
   inkscape:pageshadow="2"
   inkscape:pageopacity="0.0"
   inkscape:pagecheckerboard="0"
   inkscape:document-units="mm"
   showgrid="false"
   inkscape:zoom="0.11887912"
   inkscape:cx="5362.5902"
   inkscape:cy="-193.47384"
   inkscape:window-width="1920"
   inkscape:window-height="1015"
   inkscape:window-x="0"
   inkscape:window-y="0"
   inkscape:window-maximized="1"
   inkscape:current-layer="Layer_x0020_1"
   inkscape:showpageshadow="2"
   inkscape:deskcolor="#d1d1d1" />
 <defs
   id="defs4"><rect
   x="-802.93701"
   y="-1902.8286"
   width="10416.236"
   height="706.01672"
   id="rect21149" /><rect
   x="-1611.2162"
   y="-1944.5626"
   width="9339.9365"
   height="763.4422"
   id="rect11111" />
  <style
   type="text/css"
   id="style2">
   <![CDATA[
    .fil0 {fill:#484748}
    .fil1 {fill:#E96111}
    .fil2 {fill:white}
   ]]>
  </style>
 
   
   
   
  
    
    
    
    
    
    
    
    
    
    
    
   
    
    
    
    
    
    
    
    
    
    
    
    
    
    
    
    
    
    
    
    
   </defs>
 <g
   id="Layer_x0020_1"
   inkscape:label="Layer 1"
   inkscape:groupmode="layer"
   transform="translate(40506.767,29351.646)">
  <metadata
   id="CorelCorpID_0Corel-Layer" />
  <path
   class="fil0"
   d="m 160151.5,-23768.18 c 3263.91,-335.15 6948.28,523.44 9510.32,2637.94 1581.74,1305.44 2560.49,-44.22 3618.28,-1253.17 1335.45,-1526.27 -409.74,-2550.45 -1543.61,-3401.09 -5222.14,-3917.73 -13491.09,-4449.48 -19308.28,-1642.1 -5907.78,2851.1 -9335.6,8425.7 -9461.44,14954.38 -135.68,7039.4903 3070.76,11721.0503 8780.26,15471.1103 5262.27,3456.31 14078.18,3290.96 19405.1,89.81 1036.12,-622.65 3234.84,-1739 2271,-3186.96 -141.91,-213.18 -2936.16,-2894.07 -3102.43,-2975.4 -395.96,-193.69 -2922.86,1827.27 -3578.32,2151.91 -1496.07,740.99 -3116.75,1145.59 -4778.04,1275.32 -17247.24,1346.8 -17419.67,-22519.2303 -1812.84,-24121.7503 z"
   id="path7"
   style="clip-rule:evenodd;fill-rule:evenodd;image-rendering:optimizeQuality;shape-rendering:geometricPrecision;text-rendering:geometricPrecision" /><polygon
   class="fil0"
   points="149810.88,-1654.95 171387.29,-1654.25 171352.28,-6314.56 149774.88,-6295.85 "
   id="polygon23"
   transform="translate(6464.0877,-7935.5397)"
   style="clip-rule:evenodd;fill-rule:evenodd;image-rendering:optimizeQuality;shape-rendering:geometricPrecision;text-rendering:geometricPrecision" /><g
   id="g63"
   transform="translate(6464.0877,-7935.5397)"
   style="clip-rule:evenodd;fill-rule:evenodd;image-rendering:optimizeQuality;shape-rendering:geometricPrecision;text-rendering:geometricPrecision"
   inkscape:label="o">
    <path
   class="fil1"
   d="m -46968.79,12631.32 7079.74,-8.12 42.11,-21597.63 c 1263.21,1673.7 2777.87,4563.85 3919.38,6458.23 l 7794.68,12971.59 c 1201.89,2048.24 687.32,2168.07 3030.64,2176.11 1729.45,5.93 3465.82,9.58 5195.63,-3.15 l -4.11,-33457.85 -7075,7.89 -44.67,21766.74 c -1226.1,-1658.7 -2734.45,-4728 -3837.24,-6632.55 -1269.96,-2193.26 -2524.88,-4395.22 -3790.54,-6590.97 -1275.71,-2213.19 -2540.93,-4432.88 -3815.59,-6646.73 -1291.38,-2242.87 -597.95,-1906.92 -3303.49,-1904.49 -1730.49,1.55 -3461.04,0.16 -5191.54,0.16 z"
   id="path49" />
    <path
   class="fil1"
   d="m 23355.01,6660.44 0.78,-8333.42 c 2346.75,-24.51 5924.34,-196.49 8127.96,110.39 2357.22,328.28 4291.19,1380.41 4236.4,4034.64 -50.88,2464.8 -1951.21,3721.38 -4195.2,4071.39 -2049.18,319.62 -5969.19,160 -8169.94,117 z m 22.16,-14207.45 -24.66,-7262.9 c 947.73,-197.18 6121.08,-117.15 7316.92,-42.21 2200.51,137.91 3825.86,1285.64 3791.33,3636.32 -34.94,2378.32 -1476.72,3494.63 -3755.94,3653.15 -2209.65,153.67 -5064.86,41.96 -7327.65,15.64 z m -6908.34,-9253.8 -1.09,29385.31 c 4373.03,115.63 9443.01,95.28 13804.21,44.37 7028.86,-82.04 13038.2,-3334.06 12286.76,-11038.37 -540.15,-5538.1 -4908.48,-6274.84 -5017.81,-6782.47 0.94,-118.23 1346.55,-1106.58 1504.28,-1264.53 1711.7,-1713.98 2359.56,-3659.13 2170.47,-6100.32 -221.12,-2854.7 -1651.2,-5426.36 -4193.85,-6824.18 -2972.8,-1634.3 -6305.59,-1448.45 -9580.3,-1448.45 -3033.98,-0.01 -8189.22,-307.26 -10971.87,47.69 z"
   id="path51" />
    <path
   class="fil1"
   d="m 112933.39,-14623.16 c 8234.85,-71.54 13615.96,719.56 13532.76,10564.3 -27.06,3202.38 -773.83,6541.12 -3406.05,8622.34 -2753.3,2176.94 -6818.24,1883.59 -10124.98,1856.28 z m -7079.48,27254.48 c 6132.28,0 14765.97,803.45 20219.46,-2064.5 5637.79,-2964.87 7454.13,-8662.26 7472.71,-14696.55 18.67,-6068.66 -1840.96,-11714.48 -7510.64,-14671.96 -5404.75,-2819.29 -14101.02,-2027.76 -20178.99,-2027.76 z"
   id="path53" />
    <path
   class="fil1"
   d="m 85301.5,-5798.03 -13.45,-8829.08 c 3727.23,0 10724.13,-1186.81 10623.25,4434.65 -98.99,5515.95 -6874.08,4394.43 -10609.8,4394.43 z m 18816.57,18410.67 C 102136.06,8832.87 99663.14,4803.95 97478.54,1099.72 c -806.53,-1367.55 -1648.56,-1803.31 -149.5,-2444.74 895.58,-383.21 1970.34,-1211.65 2671.57,-1891.09 1789.34,-1733.74 2742.45,-3598.74 2950.63,-6107.77 430.48,-5188.26 -2475.94,-9220.22 -7353.01,-10800.08 -3060.07,-991.28 -13841.71,-882.09 -17388.08,-644.26 l -1.33,33416.98 7081.01,2.56 -0.39,-12220.52 4208.29,29.7 6981.75,12191.25 z"
   id="path55" />
    <path
   class="fil1"
   d="m 180785.91,-14627.11 c 3729.63,0 10718.91,-1185.75 10622.2,4434.9 -94.93,5516.76 -6877.52,4394.18 -10621.4,4394.18 z m 18829.26,27245.43 c -2020.14,-3816.95 -4446.88,-7776.04 -6639.3,-11526.58 -794.78,-1359.63 -1660.86,-1799.2 -153.84,-2433.66 822.93,-346.46 1989.55,-1222.89 2634.41,-1850.21 1785.28,-1736.68 2761.67,-3554.9 2984.69,-6069.69 461.77,-5206.75 -2397.28,-9250.8 -7291.49,-10863.32 -3692.51,-1216.58 -13121.19,-700.6 -17439.82,-705.11 l -6.56,33466.75 7083.5,-50.35 -0.28,-12179.05 4204.62,28.78 7035.53,12194.45 z"
   id="path57" />
    <path
   class="fil1"
   d="m 58380.64,-15405.82 c 6719.21,-902.83 9594.75,3875.54 9941.99,9877.5 302.19,5223.4 -877.43,11898.39 -7114.98,12735.07 -6722.28,901.69 -9613.79,-3880.66 -9973.45,-9885.42 -315.72,-5271.09 884.93,-11885.82 7146.44,-12727.15 z M 44150.11,-2721.91 c 518.93,10002.4 6722.31,16567.74 17027.83,15888.25 10255.69,-676.2 14754.49,-9240.56 14224.72,-18706.69 -556.66,-9946.72 -6725.43,-16491.88 -16985.38,-15829.76 -10273.95,663.03 -14759.24,9163.74 -14267.17,18648.2 z"
   id="path59" />
    <path
   class="fil1"
   d="m -3268.92,-15396.03 c 6668.67,-970.43 9622.37,3831.87 9990.84,9785.64 322.12,5204.72 -830.25,11925.55 -7040.04,12807.96 -6699.57,952.02 -9652.19,-3781.24 -10036.72,-9781.08 -339.51,-5297.49 823.47,-11901.21 7085.92,-12812.52 z m -14180.43,12595.46 c 484.64,9990.68 6656.09,16624.45 16965.31,15971.85 10261.86,-649.6 14785.65,-9145.56 14296.37,-18628.27 -512.77,-9938 -6647.45,-16533.68 -16903.05,-15918.06 -10284.66,617.36 -14819.59,9072 -14358.63,18574.48 z"
   id="path61" />
   </g><g
   aria-label="ELECTRICAL"
   transform="matrix(26.458333,0,0,26.458333,-19726.175,58882.998)"
   id="text21147"
   style="font-weight:bold;font-size:478.667px;line-height:1.25;font-family:Manjari;-inkscape-font-specification:'Manjari Bold';text-align:justify;letter-spacing:732px;white-space:pre;shape-inside:url(#rect21149)"><path
     d="m -785.40819,-1856.0833 0.70117,289.5842 c 0,12.6211 10.51759,23.1387 23.37241,23.1387 l 199.6004,-0.2338 h 0.23372 c 12.85483,0 23.37241,-10.5175 23.37241,-23.3724 0,-12.8548 -10.51758,-23.3724 -23.37241,-23.3724 h -0.23372 l -176.22799,0.2337 -0.23372,-98.8653 157.06261,1.1687 h 0.23372 c 11.68621,0 23.37241,-9.5827 23.37241,-22.2038 0,-14.4909 -10.05013,-25.0085 -23.37241,-25.0085 l -157.53005,-1.1686 -0.23373,-95.8269 176.92916,0.2337 h 0.23372 c 12.85483,0 23.37241,-10.5176 23.37241,-23.3724 0,-12.8548 -10.51758,-23.3724 -23.37241,-23.3724 h -0.23372 l -200.30157,-0.2337 c -12.85483,0 -23.37241,10.2838 -23.37241,22.6712 z"
     id="path331" /><path
     d="m 251.83548,-1541.9581 200.30157,-0.4674 h 0.23372 c 12.85483,0 23.37242,-10.5176 23.37242,-23.3724 0,-12.8549 -10.51759,-23.3725 -23.37242,-23.3725 h -0.23372 l -176.92916,0.4675 -0.70117,-273.2235 c 0,-12.3874 -10.51759,-22.6712 -23.37241,-22.6712 -12.85483,0 -23.37241,10.2838 -23.37241,22.6712 v 0.2337 l 0.70117,296.5959 c 0,12.6211 10.51758,23.1387 23.37241,23.1387 z"
     id="path333" /><path
     d="m 1231.1156,-1856.0833 0.7012,289.5842 c 0,12.6211 10.5176,23.1387 23.3724,23.1387 l 199.6004,-0.2338 h 0.2337 c 12.8548,0 23.3724,-10.5175 23.3724,-23.3724 0,-12.8548 -10.5176,-23.3724 -23.3724,-23.3724 h -0.2337 l -176.228,0.2337 -0.2337,-98.8653 157.0626,1.1687 h 0.2337 c 11.6862,0 23.3724,-9.5827 23.3724,-22.2038 0,-14.4909 -10.0501,-25.0085 -23.3724,-25.0085 l -157.53,-1.1686 -0.2338,-95.8269 176.9292,0.2337 h 0.2337 c 12.8548,0 23.3724,-10.5176 23.3724,-23.3724 0,-12.8548 -10.5176,-23.3724 -23.3724,-23.3724 h -0.2337 l -200.3016,-0.2337 c -12.8548,0 -23.3724,10.2838 -23.3724,22.6712 z"
     id="path335" /><path
     d="m 2522.6512,-1667.9354 c -10.2838,0 -18.6979,5.1419 -22.6712,14.0235 -16.5944,36.2272 -56.795,68.2474 -107.9805,68.2474 -68.7149,0 -111.019,-57.0287 -111.019,-125.2761 0,-67.78 42.7715,-125.7436 110.7852,-125.7436 51.8868,0 90.4513,29.9167 107.9806,65.9102 4.207,9.1152 13.3223,13.556 24.0736,13.556 10.985,0 20.5677,-11.4525 20.5677,-22.905 0,-3.7395 -0.7012,-6.778 -2.571,-10.2838 -24.541,-50.4844 -78.2976,-93.0222 -150.0509,-93.0222 -94.6582,0 -157.53,80.1673 -157.53,172.0209 0,93.0222 61.7032,172.7221 158.2312,172.7221 73.1557,0 126.4448,-44.875 150.0509,-96.528 1.6361,-3.2721 2.3372,-7.0117 2.3372,-11.2188 0,-10.985 -10.985,-21.5026 -22.2038,-21.5026 z"
     id="path337" /><path
     d="m 3294.1505,-1854.9147 c 0,12.8548 10.5176,23.3724 23.3724,23.3724 h 0.2337 l 93.9571,-0.7011 -1.1686,267.8478 v 0.4674 c 0,12.6211 10.5176,22.905 23.3724,22.905 12.8548,0 23.3724,-10.2839 23.3724,-22.905 v -0.2337 l 1.1686,-268.3153 93.0222,-0.4674 h 0.2338 c 12.8548,0 23.3724,-10.5176 23.3724,-23.3724 0,-12.8549 -10.5176,-23.3724 -23.3724,-23.3724 h -0.4675 l -233.4904,1.4023 h -0.2337 c -12.8548,0 -23.3724,10.5176 -23.3724,23.3724 z"
     id="path339" /><path
     d="m 4581.2453,-1560.656 c 0,-8.1804 -4.4408,-15.1921 -10.0501,-18.9317 -28.0469,-20.1002 -42.3041,-46.5111 -60.3009,-81.1022 -5.3756,-10.0502 -10.2838,-17.7631 -15.8932,-24.7748 34.5912,-13.556 65.6765,-43.4727 65.6765,-88.5814 0,-69.6498 -59.5997,-105.4096 -139.767,-105.4096 h -5.3757 l -62.1706,0.2337 c -12.3874,0.2337 -23.1387,10.2839 -23.1387,23.3724 l 0.7012,290.0517 c 0,13.7897 10.5176,25.2422 23.3724,25.2422 12.6211,0 23.3724,-10.7514 23.3724,-23.3725 v -0.4674 l -0.2337,-113.1225 21.2689,0.2337 c 44.875,0.4675 60.5345,12.1537 79.9336,52.1205 14.4909,29.9167 34.8249,55.6264 63.3392,75.4929 2.3373,3.0384 9.349,11.4525 18.2305,11.4525 10.2839,0 21.0352,-10.2839 21.0352,-22.4375 z m -159.1661,-272.0549 c 53.7565,0 92.321,19.6328 92.321,57.7299 0,37.1621 -34.5912,53.0553 -91.8536,53.5228 l -45.1087,0.4674 -0.4675,-111.7201 z"
     id="path341" /><path
     d="m 5372.8448,-1541.4906 c 12.8548,0 23.3724,-10.5176 23.3724,-23.3725 l -0.2338,-292.3888 c 0,-13.3223 -10.2838,-23.3724 -24.541,-23.3724 -12.1536,0 -22.2038,11.4524 -22.2038,23.3724 l 0.2337,292.3888 c 0,12.8549 10.5176,23.3725 23.3725,23.3725 z"
     id="path343" /><path
     d="m 6452.1591,-1667.9354 c -10.2839,0 -18.698,5.1419 -22.6713,14.0235 -16.5944,36.2272 -56.7949,68.2474 -107.9805,68.2474 -68.7149,0 -111.019,-57.0287 -111.019,-125.2761 0,-67.78 42.7715,-125.7436 110.7853,-125.7436 51.8867,0 90.4512,29.9167 107.9805,65.9102 4.207,9.1152 13.3223,13.556 24.0736,13.556 10.985,0 20.5677,-11.4525 20.5677,-22.905 0,-3.7395 -0.7012,-6.778 -2.571,-10.2838 -24.541,-50.4844 -78.2975,-93.0222 -150.0508,-93.0222 -94.6583,0 -157.5301,80.1673 -157.5301,172.0209 0,93.0222 61.7032,172.7221 158.2312,172.7221 73.1557,0 126.4448,-44.875 150.0509,-96.528 1.6361,-3.2721 2.3372,-7.0117 2.3372,-11.2188 0,-10.985 -10.985,-21.5026 -22.2037,-21.5026 z"
     id="path345" /><path
     d="m 7359.9197,-1869.873 -128.3145,298.6994 c -1.1687,2.571 -2.1036,6.778 -2.1036,9.5827 0,12.8548 10.5176,23.3724 23.3724,23.3724 8.6478,0 18.2305,-6.5443 21.5027,-14.4909 l 40.9017,-94.892 133.2227,1.8698 39.9669,92.7885 c 3.2721,7.9466 13.0885,14.2571 21.7363,14.2571 12.8548,0 23.3724,-10.5175 23.3724,-23.3724 0,-2.8047 -0.9349,-7.0117 -2.1035,-9.5827 l -128.5483,-298.2319 c -3.2721,-7.7129 -13.0885,-14.0235 -21.5026,-14.0235 -8.6478,0 -18.2305,6.3106 -21.5026,14.0235 z m 21.5026,68.4811 46.7448,108.448 -92.7884,-1.1686 z"
     id="path347" /><path
     d="m 8323.3067,-1541.9581 200.3015,-0.4674 h 0.2338 c 12.8548,0 23.3724,-10.5176 23.3724,-23.3724 0,-12.8549 -10.5176,-23.3725 -23.3724,-23.3725 h -0.2338 l -176.9291,0.4675 -0.7012,-273.2235 c 0,-12.3874 -10.5176,-22.6712 -23.3724,-22.6712 -12.8548,0 -23.3724,10.2838 -23.3724,22.6712 v 0.2337 l 0.7012,296.5959 c 0,12.6211 10.5175,23.1387 23.3724,23.1387 z"
     id="path349" /></g>
 </g>
</svg>
