<?xml version="1.0" encoding="UTF-8" standalone="no"?>
<!-- Created with Inkscape (http://www.inkscape.org/) -->

<svg
   version="1.1"
   id="svg25"
   width="9342"
   height="3535"
   viewBox="0 0 9342 3535"
   sodipodi:docname="logo.svg"
   inkscape:version="1.1.2 (1:1.1+202202050950+0a00cf5339)"
   xmlns:inkscape="http://www.inkscape.org/namespaces/inkscape"
   xmlns:sodipodi="http://sodipodi.sourceforge.net/DTD/sodipodi-0.dtd"
   xmlns="http://www.w3.org/2000/svg"
   xmlns:svg="http://www.w3.org/2000/svg">
  <defs
     id="defs29" />
  <sodipodi:namedview
     id="namedview27"
     pagecolor="#ffffff"
     bordercolor="#666666"
     borderopacity="1.0"
     inkscape:pageshadow="2"
     inkscape:pageopacity="0.0"
     inkscape:pagecheckerboard="0"
     showgrid="false"
     inkscape:zoom="0.18422179"
     inkscape:cx="4671"
     inkscape:cy="1769.606"
     inkscape:window-width="1920"
     inkscape:window-height="1015"
     inkscape:window-x="0"
     inkscape:window-y="0"
     inkscape:window-maximized="1"
     inkscape:current-layer="g31" />
  <g
     inkscape:groupmode="layer"
     inkscape:label="Image"
     id="g31">
    <path
       style="fill:#000000"
       d="m 6999.8748,2652.502 c -109.1075,-267.6699 -157.6136,-386.3939 -160.7153,-393.3685 -1.3518,-3.0395 -4.5484,-6.3051 -12.0903,-12.3511 -49.7739,-39.9017 -105.9185,-94.4583 -149.1824,-144.9627 -30.1581,-35.2054 -68.4642,-86.2422 -84.4784,-112.5543 -4.3043,-7.0722 -3.6566,-6.2604 15.9815,20.0333 51.7529,69.2924 115.0714,135.7704 182.932,192.0602 24.5368,20.353 34.6689,27.9622 33.5805,25.219 -0.5045,-1.2719 -5.6482,-13.9 -11.4302,-28.0625 l -10.5129,-25.75 h 57.2694 57.2693 l 30.5414,76.75 30.5413,76.75 7.3706,4.2329 c 18.0046,10.3399 75.6992,36.2301 110.8706,49.7528 34.6022,13.3038 101.4119,34.5944 103.0095,32.8266 0.4037,-0.4468 22.5043,-54.6932 49.1123,-120.5476 l 48.3782,-119.7352 57.2252,-0.015 57.2253,-0.015 -0.8637,2.25 c -0.475,1.2375 -25.2612,60.6651 -55.0805,132.0614 -29.8193,71.3962 -54.0524,129.9758 -53.8515,130.1768 0.6387,0.6386 42.6133,7.3945 62.3452,10.0346 35.4928,4.7487 84.3527,9.02 123.25,10.7744 l 8.25,0.3721 v -142.8347 -142.8346 h 52 52 v 143.0603 143.0604 l 9.25,-0.56 c 5.0875,-0.3079 18.025,-1.0333 28.75,-1.612 27.528,-1.4852 74.6789,-5.7925 93.8295,-8.5714 2.3813,-0.3455 4.4744,-1.1343 4.6513,-1.7528 0.177,-0.6185 1.535,-6.5245 3.0178,-13.1245 10.8628,-48.3499 36.3671,-99.143 71.5523,-142.5 59.6158,-73.4617 136.1917,-116.6964 227.4491,-128.4175 78.5927,-10.0945 148.1845,2.282 218,38.7703 l 14,7.317 0.2802,12.7112 0.2802,12.7112 12.7198,-9.7171 c 28.3193,-21.6343 57.2452,-45.7689 85.6746,-71.4837 29.9683,-27.1067 93.753,-94.0221 137.0452,-143.7719 l 9,-10.3424 5.5,0.5781 c 16.4166,1.7254 26,10.4901 26,23.779 0,16.1228 -7.3927,26.4953 -56.9222,79.8658 -12.5053,13.475 -32.7614,34.7375 -45.0137,47.25 l -22.2769,22.75 h 178.1064 178.1064 v 48.5 48.5 h -137.5 -137.5 v 81.9964 81.9963 l 133.25,0.2537 133.25,0.2536 0.2595,48.75 0.2595,48.75 h -133.5095 -133.5095 v 113.9965 113.9964 l 137.25,0.2536 137.25,0.2535 0.2595,48.75 0.2595,48.75 h -189.5095 -189.5095 v -332.0031 -332.0032 l -18.75,16.149 c -32.2156,27.7466 -76.2603,62.1483 -101.5125,79.2876 l -8.7375,5.9304 v 18.3196 c 0,10.0759 -0.275,18.3197 -0.6112,18.3197 -0.3362,0 -2.6987,-1.7253 -5.25,-3.834 -2.5513,-2.1086 -8.1007,-6.4189 -12.332,-9.5783 l -7.6931,-5.7445 -16.3069,10.2311 c -110.5412,69.3546 -234.304,118.922 -366.7118,146.8693 -12.8728,2.717 -23.752,5.5014 -24.176,6.1875 -2.6184,4.2367 -3.4082,62.578 -1.0609,78.3689 7.1781,48.289 24.3305,88.6447 52.9164,124.5 9.2498,11.6019 28.7408,31.1503 40.2255,40.3437 35.481,28.4024 74.4376,44.9184 121,51.2991 15.2035,2.0834 51.649,2.3382 66.5,0.4649 51.1354,-6.4502 90.0062,-25.6238 149.25,-73.6197 l 3.25,-2.633 v 62.8555 62.8554 l -13.75,7.1383 c -44.6602,23.1855 -92.7224,37.2823 -141.0047,41.3571 -27.9879,2.362 -70.3469,0.4248 -99.2453,-4.5389 -69.1512,-11.8775 -134.6033,-47.2829 -187.0106,-101.1608 -48.7173,-50.0842 -79.8891,-108.5237 -92.4103,-173.2462 -4.7582,-24.5951 -5.9544,-38.5319 -6.0189,-70.1249 l -0.06,-29.5095 -12.5,1.2041 c -19.8912,1.9159 -55.9448,4.2159 -75.5,4.8164 -9.9,0.304 -23.5125,0.8109 -30.25,1.1263 l -12.25,0.5736 v 179.8993 179.8993 h -52 -52 v -180.893 c 0,-164.0283 -0.1475,-180.9496 -1.5818,-181.5 -0.87,-0.3339 -3.7477,-0.607 -6.3949,-0.607 -15.0523,0 -73.7611,-5.9539 -109.5233,-11.1072 -21.6487,-3.1196 -61.8692,-10.2101 -78.4772,-13.8348 -5.186,-1.1319 -9.8037,-2.058 -10.2615,-2.058 -0.4578,0 -1.765,2.1375 -2.9049,4.75 -3.7875,8.6804 -50.7229,120.868 -116.9324,279.4984 -35.9832,86.2117 -65.649,156.7432 -65.924,156.7366 -0.275,-0.01 -47.5012,-115.3183 -104.9471,-256.2484 z m 141.4181,-90.7366 c 25.1285,-62.1165 40.8612,-101.1633 48.2072,-119.6447 0.2864,-0.7206 -6.5174,-3.4519 -18.3616,-7.3713 -53.3457,-17.6527 -103.8137,-38.8093 -155.8107,-65.3169 -12.3782,-6.3103 -22.5059,-11.1269 -22.5059,-10.7036 0,0.4234 0.8788,2.9673 1.9528,5.6531 7.0311,17.5829 110.4732,277.3712 111.2444,279.3834 l 0.9581,2.5 1.482,-3.5 c 0.8151,-1.925 15.5903,-38.375 32.8337,-81 z m 734.3176,-140.508 c 107.3989,-26.6376 205.328,-67.0972 302.1065,-124.8159 l 20.3951,-12.1636 -9.0917,-4.2341 c -35.8692,-16.7049 -79.8249,-24.9226 -119.294,-22.3025 -52.718,3.4995 -96.0173,19.9673 -135.9045,51.688 -10.9697,8.7238 -31.3873,29.228 -41.1659,41.3405 -16.0691,19.9046 -33.07,49.3532 -40.2015,69.636 -2.2047,6.2706 -2.3048,7.0941 -0.8216,6.7601 0.929,-0.2092 11.7189,-2.868 23.9776,-5.9085 z m -6194.2886,447.9228 c -1.65,-0.222 -7.95,-0.8948 -14,-1.4951 -101.5805,-10.0793 -196.3731,-69.3578 -255.7752,-159.9487 -28.8246,-43.959 -46.1007,-92.6236 -52.3525,-147.471 -2.0976,-18.4021 -2.3718,-61.4303 -0.5035,-79 7.4349,-69.9166 32.7728,-131.299 77.1916,-187 55.4152,-69.4906 124.9524,-112.483 206.9396,-127.9435 25.068,-4.7271 35.3849,-5.7038 66.1603,-6.2636 31.2253,-0.5679 42.8467,0.1137 65.8397,3.8616 35.8586,5.845 74.5505,19.2555 109.75,38.039 l 13.25,7.0706 v 61.4899 c 0,60.3509 -0.035,61.4645 -1.9113,60.118 -1.0513,-0.7546 -5.8806,-4.522 -10.732,-8.372 -21.2415,-16.8572 -53.8438,-36.1653 -77.3567,-45.8131 -46.4868,-19.0745 -94.624,-24.1448 -143.6491,-15.1306 -49.1733,9.0415 -93.0808,33.1498 -129.1186,70.8954 -39.5229,41.3958 -61.6327,86.3082 -70.4208,143.0483 -2.9447,19.0125 -3.2016,61.6902 -0.4816,80 7.9525,53.532 28.383,97.3037 63.3386,135.7011 40.8041,44.8217 90.8821,71.2797 150.3322,79.426 17.2821,2.3681 52.7772,2.3448 70.4993,-0.046 46.0517,-6.2134 88.1634,-26.618 137.4962,-66.6218 6.0765,-4.9274 11.2666,-8.9589 11.5335,-8.9589 0.2669,0 0.3694,28.2375 0.2278,62.75 l -0.2575,62.75 -18,9.0776 c -40.3488,20.3483 -76.4545,31.6351 -121.5,37.9812 -10.8843,1.5334 -68.5082,2.9315 -76.5,1.856 z m 1880,-0.042 c -18.0759,-1.8199 -33.2188,-3.9594 -45.6028,-6.4431 -67.569,-13.5512 -127.7929,-47.1167 -179.1726,-99.8611 -17.5933,-18.0605 -28.7891,-31.8821 -42.5818,-52.5682 -26.0707,-39.1007 -43.2059,-82.2225 -51.0617,-128.5 -3.8141,-22.4679 -4.5728,-32.9943 -4.577,-63.5 0,-30.3609 0.6499,-39.379 4.5327,-62.5 11.6522,-69.3849 45.7186,-135.0559 98.4557,-189.7962 60.8008,-63.1104 133.7435,-97.4964 223.338,-105.2838 20.5371,-1.7851 66.0878,-0.6815 83.6695,2.0271 39.5417,6.0918 73.8476,17.3267 111,36.3518 l 18,9.2174 0.2576,61.7666 0.2577,61.7666 -9.3975,-7.4814 c -46.1393,-36.7318 -94.7449,-58.516 -146.6178,-65.7116 -12.1254,-1.6819 -48.4518,-1.6547 -61,0.046 -47.2947,6.4091 -85.4124,22.4817 -120.5,50.8097 -11.5925,9.3592 -33.2998,31.2172 -42.4931,42.788 -29.7442,37.4367 -47.803,81.9421 -53.6204,132.1456 -2.0247,17.4738 -1.4548,58.3009 1.0379,74.3544 9.9957,64.3731 41.8437,119.4193 92.9786,160.7049 47.237,38.1384 108.1467,56.7194 172.0005,52.4699 58.47,-3.8911 99.0481,-22.1197 161.8465,-72.7051 l 5.75,-4.6317 -0.01,62.831 -0.01,62.831 -11.7419,6.1622 c -40.5543,21.283 -82.0152,34.5626 -127.7419,40.9149 -11.4549,1.5913 -66.3209,2.8706 -77,1.7953 z m 1908.2075,-0.8951 c -41.2081,-4.986 -78.1552,-20.5636 -108.2075,-45.6223 -37.7593,-31.4851 -63.4347,-78.7327 -74.9902,-137.9962 -3.0936,-15.866 -3.1058,-16.6775 -0.2598,-17.3612 3.2905,-0.7905 102.0005,-22.4976 102.3047,-22.4976 0.1417,0 0.5526,2.3625 0.9131,5.25 4.0088,32.1068 12.4257,60.6973 22.1122,75.1108 5.9211,8.8105 18.2076,21.6681 26.0685,27.2803 29.7805,21.2612 76.6095,26.1447 113.0382,11.7879 13.2887,-5.2371 22.1002,-11.2429 34.3741,-23.429 16.3671,-16.25 23.978,-29.3203 29.6681,-50.9494 2.0744,-7.8855 2.5951,-12.6016 2.9863,-27.0506 0.4117,-15.2062 0.192,-18.8763 -1.6762,-28 -7.2144,-35.2322 -29.1149,-59.6167 -74.039,-82.4367 -7.975,-4.0511 -32.05,-14.6373 -53.5,-23.525 -69.7108,-28.8844 -95.467,-43.6065 -123.3837,-70.5256 -37.447,-36.1088 -54.3775,-80.373 -50.2568,-131.3947 1.9919,-24.664 6.3984,-40.9516 16.6703,-61.618 8.5465,-17.1949 17.3984,-29.4061 31.9702,-44.103 33.7208,-34.0101 74.5377,-53.7952 123.4804,-59.8544 16.1698,-2.0019 48.2429,-2.0276 63.2184,-0.051 62.2602,8.2188 113.57,44.2662 151.3111,106.3027 3.2775,5.3873 3.6248,6.4852 2.4098,7.6168 -0.7808,0.7272 -19.1947,11.7989 -40.9197,24.6038 -21.725,12.8049 -39.9662,23.6399 -40.5359,24.0779 -0.6375,0.4901 -2.9453,-2.3516 -6,-7.388 -7.3438,-12.1079 -18.1812,-26.3142 -25.92,-33.9772 -15.9631,-15.8067 -36.1871,-23.7644 -64.5441,-25.3966 -33.723,-1.9411 -64.8299,9.6691 -85.6791,31.9785 -7.7432,8.2855 -12.6185,16.5474 -16.6058,28.1412 -2.9023,8.4387 -3.1125,9.9933 -3.1171,23.049 0,12.9414 0.209,14.5671 2.8248,21.5 7.8727,20.8653 25.487,37.9037 53.9523,52.1883 5.4778,2.7488 30.0218,13.2243 54.5422,23.2788 48.5183,19.8948 63.2624,26.5813 81.5827,36.998 24.603,13.989 42.7029,27.7363 59.5,45.1916 13.272,13.7921 22.1956,26.336 30.478,42.8433 14.6453,29.1891 20.3824,58.271 19.2219,97.4379 -0.6431,21.7031 -2.183,33.4983 -6.7898,52.0071 -12.3491,49.6164 -43.6311,92.9513 -88.5943,122.7298 -28.2908,18.7366 -61.2559,30.4405 -96.5264,34.2707 -13.0282,1.4148 -47.7168,1.1489 -61.0819,-0.4682 z m 3597,0 c -64.3274,-7.7833 -117.9156,-41.5525 -150.0561,-94.5595 -6.1951,-10.2171 -16.6729,-32.1787 -21.1604,-44.3526 -6.1624,-16.7175 -16.0724,-59.3172 -14.228,-61.1615 0.6522,-0.6523 103.9116,-23.5768 104.2977,-23.1551 0.1265,0.1383 1.1874,6.6049 2.3576,14.3702 4.3393,28.797 11.8009,52.5573 20.6311,65.6964 5.6923,8.47 16.8326,20.287 24.8636,26.3738 24.7182,18.7342 66.3036,25.9513 99.9498,17.3461 20.2946,-5.1905 33.1329,-12.5814 48.698,-28.0351 16.5286,-16.4103 24.5555,-30.406 30.1376,-52.5482 1.9634,-7.7879 2.2597,-11.5521 2.2792,-28.9518 0.027,-24.3374 -1.5451,-32.0557 -9.9821,-49 -6.3076,-12.6676 -14.0139,-22.4702 -25.1042,-31.933 -19.0854,-16.2846 -38.9562,-26.7666 -93.8913,-49.5287 -69.7409,-28.8968 -95.0997,-43.3953 -123.3764,-70.5383 -27.5068,-26.404 -43.86,-57.1119 -48.9939,-92 -3.8163,-25.9346 -1.4014,-56.0749 6.4182,-80.1041 3.7838,-11.6274 14.4851,-32.548 22.1977,-43.3959 3.7149,-5.225 12.1544,-14.9463 18.7544,-21.603 33.7208,-34.0101 74.5377,-53.7952 123.4804,-59.8544 16.1698,-2.0019 48.2429,-2.0276 63.2184,-0.051 57.0998,7.5376 103.9967,37.7191 141.1769,90.8573 11.2603,16.0934 14.1996,21.5272 12.499,23.1072 -0.7561,0.7025 -19.1497,11.7539 -40.8747,24.5588 -21.725,12.8049 -39.9612,23.6358 -40.5248,24.0688 -0.6235,0.4789 -3.2432,-2.8171 -6.6893,-8.4159 -21.5521,-35.0155 -41.0435,-50.452 -70.876,-56.1314 -56.3051,-10.7192 -107.8409,14.8095 -122.0597,60.4633 -1.9774,6.3492 -2.3285,9.5714 -2.2879,21 0.044,12.3057 0.2976,14.1635 2.8692,21 7.8398,20.842 25.4721,37.9006 53.9436,52.1883 5.4778,2.7488 30.0218,13.2243 54.5422,23.2788 48.5183,19.8948 63.2624,26.5813 81.5827,36.998 24.603,13.989 42.7029,27.7363 59.5,45.1916 13.38,13.9042 22.3232,26.4673 30.4989,42.8433 14.6537,29.3515 20.3603,58.3107 19.201,97.4379 -0.6422,21.6721 -2.1836,33.5004 -6.7641,51.9044 -12.4409,49.9876 -43.7535,93.2433 -89.1576,123.1638 -28.2888,18.6418 -60.7228,30.1097 -95.9888,33.9394 -13.0282,1.4148 -47.7168,1.1489 -61.0819,-0.4682 z M -9.1781283,2515.2654 v -342.5 H 179.82188 368.82187 v 48.5 48.5 H 231.82188 94.821872 v 82 82 H 227.82188 360.82187 v 49 49 H 227.82188 94.821872 v 114 114 H 231.82188 368.82187 v 49 49 H 179.82188 -9.1781283 Z m 513.9999983,0 v -342.5 h 51.5 51.5 v 293.4952 293.4952 l 100.75,0.2548 100.74997,0.2548 0.2595,48.75 0.2596,48.75 H 657.33138 504.82187 Z m 401.99997,0 v -342.5 h 188.99996 189.0001 v 48.5 48.5 h -137.0001 -137 v 82 82 h 133 133.0001 v 49 49 h -133.0001 -133 v 114 114 h 137 137.0001 v 49 49 H 1095.8218 906.82184 Z m 1214.75176,48.75 -0.2517,-293.75 -78.75,-0.2561 -78.75,-0.256 v -48.494 -48.4939 h 209 209 v 48.4939 48.4939 l -78.25,0.2561 -78.25,0.2561 -0.2517,293.75 -0.2517,293.75 h -51.4966 -51.4966 z m 369.2483,-48.8257 v -342.5758 l 82.75,0.4178 c 87.8421,0.4434 92.0799,0.6425 124.6585,5.8554 41.4536,6.6331 77.5183,20.2972 102.3387,38.7738 35.7344,26.6012 60.8214,66.3848 69.7457,110.6045 10.7318,53.1755 1.955,109.3252 -23.6446,151.2665 -24.6339,40.3593 -63.3416,69.6869 -109.3483,82.8498 -6.6,1.8883 -12.3668,3.5444 -12.8151,3.6802 -0.4484,0.1358 46.6891,65.6343 104.75,145.5523 58.0608,79.918 105.5651,145.4957 105.5651,145.7283 0,0.2326 -28.493,0.4229 -63.3178,0.4229 h -63.3178 l -97.5084,-139.75 -97.5084,-139.75 -9.1738,-0.2875 -9.1738,-0.2876 v 140.0376 140.0375 h -52 -52 z m 177.5,-30.8137 c 14.2024,-2.2737 22.6164,-4.2298 33.5,-7.788 31.459,-10.2852 52.9465,-28.9738 63.3935,-55.1359 11.4021,-28.5538 11.0146,-66.6196 -0.9416,-92.4971 -10.1614,-21.993 -28.6095,-37.848 -54.7719,-47.0728 -24.6746,-8.7003 -51.5066,-12.0679 -96.43,-12.1027 l -18.25,-0.014 v 108.6197 108.6198 l 31.75,-0.514 c 22.0121,-0.3563 34.817,-1.0049 41.75,-2.1149 z m 369.5,30.8894 v -342.5 h 51.5 51.5 v 342.5 342.5 h -51.5 -51.5 z m 792,341.6483 c 0,-1.3941 337.6669,-726.2514 338.4133,-726.4596 0.6833,-0.1905 326.5867,724.6958 326.5867,726.406 0,0.5546 -22.555,0.8189 -56.6247,0.6636 l -56.6246,-0.2583 -35.6481,-82.5 -35.648,-82.5 -146.513,-0.2533 -146.5129,-0.2533 -37.9691,82.7533 -37.9691,82.7533 -55.7452,0.2584 c -31.0669,0.144 -55.7453,-0.1261 -55.7453,-0.6101 z m 435.0612,-269.3983 c -1.5473,-3.4375 -24.0773,-55.075 -50.0666,-114.75 -25.9893,-59.675 -47.5512,-108.8336 -47.9153,-109.2414 -0.3642,-0.4078 -24.2346,50.8922 -53.0454,114 -28.8108,63.1078 -52.5562,115.0789 -52.7676,115.4914 -0.2114,0.4125 46.189,0.75 103.112,0.75 h 103.4963 z m 315.9388,-72.25 v -342.5 h 51.5 51.5 v 293.5 293.5 h 101 101 v 49 49 h -152.5 -152.5 z m 1266,0 v -342.5 h 189.5 189.5 v 48.5 48.5 h -137.5 -137.5 v 81.9964 81.9963 l 133.25,0.2537 133.25,0.2536 0.2595,48.75 0.2595,48.75 h -133.5095 -133.5095 v 113.9965 113.9964 l 137.25,0.2536 137.25,0.2535 0.2595,48.75 0.2595,48.75 h -189.5095 -189.5095 z m 514,-0.072 v -342.5718 l 82.25,0.4271 c 83.9034,0.4357 89.1223,0.6479 118.25,4.8081 40.3757,5.7667 77.5086,18.5321 102.7341,35.3175 29.8042,19.8321 55.1988,52.1405 68.0608,86.5908 8.6422,23.1476 12.0949,44.1148 12.1032,73.5 0.01,23.5371 -1.5692,37.2717 -6.4475,56.1917 -11.4923,44.5716 -40.3013,84.5043 -79.1636,109.7304 -16.0276,10.4037 -40.4849,20.9543 -58.1387,25.0803 -3.2184,0.7522 -6.0491,1.5651 -6.2904,1.8064 -0.2413,0.2413 46.439,64.958 103.734,143.815 57.2951,78.8569 104.84,144.3887 105.6555,145.6262 l 1.4826,2.25 h -63.4823 -63.4823 l -97.5166,-139.75 -97.5165,-139.75 -9.1162,-0.2875 -9.1161,-0.2876 v 140.0376 140.0375 h -52 -52 z m 178,-30.8775 c 66.2317,-10.4508 98.9312,-41.1195 104.0874,-97.6231 2.202,-24.1304 -2.6926,-48.7935 -13.2328,-66.6771 -4.7549,-8.0678 -18.8982,-22.0125 -28.0312,-27.6378 -25.852,-15.9231 -60.6431,-22.5539 -118.5734,-22.5987 l -18.25,-0.014 v 108.6197 108.6198 l 31.75,-0.516 c 22.4061,-0.3641 34.8401,-1.0035 42.25,-2.1727 z m 586.4411,-420.106 c -1.864,-1.4934 -1.8517,-1.5118 0.3089,-0.4648 1.2375,0.5997 2.25,1.2995 2.25,1.5552 0,0.7652 -0.5186,0.5442 -2.5589,-1.0904 z m -29.4381,-17.8453 c -92.7238,-58.4011 -181.6451,-145.1364 -242.2367,-236.2819 -35.2811,-53.0719 -61.4368,-105.5614 -83.2312,-167.029 l -7.1663,-20.2115 -2.2848,7.2115 c -8.5214,26.8957 -31.2421,76.4959 -47.2788,103.2114 -45.0431,75.0375 -105.7002,134.4341 -179.3052,175.5792 -81.498,45.5572 -175.6613,72.7222 -285.5,82.3633 -42.0152,3.6879 -50.68,3.8232 -273.25,4.2695 l -220.75,0.4426 V 1362.8424 729.76507 l 205.25,0.02 c 226.5194,0.022 250.3464,0.4631 301.25,5.5816 126.9854,12.769 233.437,49.3718 317.9171,109.3144 79.3815,56.3248 139.63,135.5086 175.825,231.08443 3.0202,7.975 5.8179,15.4 6.2172,16.5 0.5271,1.4521 2.8419,-4.1632 8.4504,-20.5 15.9159,-46.3603 33.2133,-85.36753 55.8734,-126.00003 61.6819,-110.604 159.3758,-212.9769 269.4895,-282.3968 87.1182,-54.92261 185.2297,-92.6581 291.2274,-112.01137 98.5268,-17.98922 210.0839,-21.25192 308.5,-9.02267 84.5264,10.50331 160.1228,31.25564 236.5,64.92273 39.4682,17.39757 90.9281,46.30731 125.75,70.64521 l 9.75,6.8145 v -3.2943 c 0,-5.8011 2.9545,-13.6013 6.7382,-17.7893 5.215,-5.7724 10.4947,-8.2043 17.8575,-8.2255 5.5838,-0.016 7.5155,0.6624 23,8.0785 25.3924,12.1614 51.6481,21.0427 81.9631,27.7251 6.5677,1.4477 12.6162,2.8498 13.4412,3.1158 0.825,0.2659 -7.5655,-8.5125 -18.6456,-19.5077 -21.8948,-21.7269 -24.3544,-25.1507 -24.3544,-33.9018 0,-9.2989 5.1614,-17.14228 14.41,-21.89783 6.9239,-3.5602 17.0217,-3.77353 23.6648,-0.49994 6.1975,3.05407 22.0975,17.33517 35.4245,31.81777 13.6003,14.7796 28.1909,29.4279 29.312,29.4279 0.4632,0 0.3839,-2.2372 -0.1762,-4.9715 -1.503,-7.3374 1.1461,-15.0735 7.2367,-21.1331 2.5455,-2.5326 5.3032,-4.8291 6.1282,-5.1034 1.0211,-0.3394 -6.8018,-8.8863 -24.5,-26.76749 -30.253,-30.56575 -45.1693,-44.44856 -62.5,-58.16934 -19.6963,-15.59364 -22.0952,-17.86416 -24.6335,-23.31505 -3.2676,-7.01714 -3.2616,-17.07586 0.014,-24.11102 4.3105,-9.25708 14.0747,-14.53823 23.8402,-12.89448 10.883,1.83183 38.4507,12.75292 76.9535,30.48549 l 24.6745,11.3639 -1.2165,2.98145 c -3.2087,7.86366 -11.7999,9.21541 -33.3755,5.25135 -29.0144,-5.33079 -40.257,-2.1564 -40.257,11.36673 0,8.50978 3.2567,12.57825 35.1635,43.92807 16.4639,16.17641 32.631,32.76399 35.9271,36.86119 14.1325,17.5677 16.6088,31.9128 7.2896,42.228 -4.3352,4.7987 -8.956,6.426 -16.1409,5.6844 -6.993,-0.7217 -13.2699,-3.829 -25.7393,-12.7414 -19.3334,-13.8186 -27.5821,-15.8314 -35.3561,-8.6272 -3.5338,3.2747 -4.2977,6.072 -5.1578,18.8875 -0.9502,14.1562 -3.0184,18.8956 -9.9031,22.6934 -9.3689,5.1682 -23.9924,3.8188 -48.9864,-4.5204 -24.9604,-8.3278 -32.2328,-9.0293 -50.5451,-4.8756 -15.6006,3.5386 -21.7197,3.9591 -30.5163,2.0968 -9.3852,-1.9869 -17.2213,-5.7086 -39.7697,-18.8885 -103.932,-60.74991 -206.4192,-94.36522 -329.7655,-108.16151 -57.861,-6.47176 -130.6109,-7.21367 -194,-1.97845 -231.9351,19.15524 -422.0332,113.55436 -565.9367,281.03346 -75.9696,88.4156 -129.3623,192.24963 -158.546,308.32793 l -3.9797,15.8294 2.9182,17.3697 c 18.7161,111.3991 16.5879,239.5044 -5.8101,349.7327 l -2.9185,14.3631 2.8083,12.6369 c 5.0945,22.9242 6.9813,30.4334 12.5286,49.8627 40.0236,140.1805 117.2961,260.8236 233.4359,364.4558 20.8366,18.5926 52.1551,43.2691 74,58.3063 8.75,6.0231 10.7285,7.5159 9.95,7.5072 -0.2475,0 -7.8737,-4.6808 -16.947,-10.3955 z m -895.003,-287.5151 c 73.5978,-6.4245 130.4538,-22.4852 176.1797,-49.7673 85.391,-50.9483 138.2209,-145.0931 152.251,-271.3168 10.2338,-92.07 2.3868,-189.7247 -20.7718,-258.5 -36.4324,-108.1953 -105.859,-172.1293 -216.0192,-198.92903 -53.4483,-13.0028 -90.6235,-15.8512 -200.6397,-15.3731 l -69.5,0.3021 -0.2558,396.50003 c -0.1407,218.075 -0.025,397.109 0.2582,397.8533 0.4287,1.1284 14.2629,1.2676 83.2558,0.8376 46.5997,-0.2905 88.2019,-0.9923 95.2418,-1.6068 z m 1355,275.8892 c -68.9003,-4.118 -130.1509,-15.5644 -189.5,-35.4135 -31.0219,-10.3751 -50.465,-18.3969 -80,-33.006 -27.7804,-13.7412 -44.562,-23.4551 -71,-41.098 -61.225,-40.8572 -118.4104,-95.186 -162.2668,-154.1614 -13.299,-17.8838 -50.7775,-74.5899 -60.0083,-90.7944 -42.3533,-74.351 -67.4482,-153.7657 -76.6295,-242.5 -5.3514,-51.7194 -4.5907,-117.7138 1.9597,-170 11.5456,-92.1591 41.5173,-177.7518 88.2419,-252 40.6717,-64.62993 98.0201,-126.05033 162.203,-173.72033 88.8006,-65.954 193.5922,-106.7898 311.2305,-121.2822 43.1016,-5.3099 102.221,-7.381 145.2695,-5.0891 116.4135,6.1978 214.8687,33.203 307.3564,84.3046 17.8075,9.839 32.4962,19.084 67.1436,42.2598 53.9792,36.1069 78.8077,57.25 86.3436,73.5272 1.662,3.5898 2.0908,6.5268 2.1199,14.521 0.034,9.3711 -0.1795,10.4597 -3.2934,16.785 -5.9542,12.0947 -14.9311,22.2959 -58.9027,66.93593 -12.8626,13.0581 -26.2324,25.7728 -29.7106,28.2548 -21.312,15.2079 -38.149,13.1208 -65.0568,-8.0644 -19.2496,-15.1557 -36.6551,-27.9558 -48.5,-35.66723 -79.7477,-51.9179 -172.5914,-76.8211 -277.5,-74.4329 -105.629,2.4046 -193.8182,28.7292 -270.5,80.74483 -86.8451,58.9095 -149.8645,144.4836 -177.9007,241.5716 -13.7225,47.5201 -19.5867,91.2043 -19.5121,145.3514 0.1072,77.8147 14.4836,143.2509 45.3685,206.5 29.9214,61.276 77.8775,118.3194 136.164,161.9658 21.1616,15.8463 55.0295,32.4212 91.9917,45.0206 58.0505,19.7877 120.2659,28.8514 186.3886,27.1535 95.2312,-2.4454 175.8956,-24.7384 248.6333,-68.7142 26.3067,-15.9045 53.1287,-36.281 78.2564,-59.4509 l 13.6881,-12.6216 18.2728,17.517 c 15.4696,14.8298 19.1275,17.8367 23.8444,19.6016 9.2127,3.4469 18.7669,11.0571 42.6072,33.9379 51.4954,49.4228 61.4691,61.6039 63.6602,77.7488 0.8437,6.2168 -1.3366,15.7448 -5.0549,22.0895 -6.275,10.7074 -26.1083,28.0011 -56.4075,49.1844 -28.8573,20.1753 -53.4576,34.7235 -85.5,50.5634 -82.123,40.597 -170.5242,63.6804 -274,71.5472 -18.5285,1.4086 -91.1704,2.0258 -109.5,0.9303 z m -5888.5,-17.655 c -80.1948,-1.5351 -155.5905,-15.7276 -220.3875,-41.4858 -90.2856,-35.8904 -167.881,-95.2056 -225.4433,-172.3325 -69.3155,-92.8748 -111.767,-212.4694 -125.124,-352.5 -5.0702,-53.1551 -5.057,-122.0778 0.034,-176.5 18.6253,-199.1017 98.2569,-358.32763 227.9207,-455.73473 45.9119,-34.4903 100.9735,-63.017 155.5,-80.5624 47.1226,-15.163 94.2746,-23.8622 153.5,-28.3194 20.7539,-1.562 80.2389,-1.5764 102,-0.025 107.7086,7.6797 193.6465,34.1666 273.7874,84.3838 128.5922,80.5774 214.4578,213.89403 250.0661,388.25743 23.742,116.2583 23.427,249.7443 -0.8616,365.0975 -35.2427,167.3775 -116.1021,295.6173 -236.9919,375.8599 -23.6463,15.6956 -37.1674,23.5018 -61.2929,35.3864 -62.1972,30.6392 -128.9672,48.6612 -206.1515,55.6424 -21.9528,1.9856 -62.121,3.3 -86.5556,2.8322 z m 39.5,-224.3379 c 102.5084,-5.8022 174.7581,-44.7877 226.9865,-122.4804 49.573,-73.7428 75.0032,-178.002 75.0032,-307.5 0,-138.3344 -29.0163,-247.8048 -85.4566,-322.4032 -47.3775,-62.62023 -111.1284,-97.30573 -194.9398,-106.06293 -70.8291,-7.4006 -139.5731,2.9186 -190.978,28.6681 -39.7773,19.925 -74.8962,51.46483 -101.5446,91.19573 -42.8901,63.9461 -67.6274,148.5592 -73.9966,253.1023 -4.4691,73.3554 -0.1485,145.7346 12.4173,208.0186 15.5607,77.1285 43.7772,138.9147 85.295,186.7723 32.373,37.3164 74.6161,63.9342 124.0404,78.159 36.7329,10.5722 80.0031,14.9741 123.1732,12.5305 z m 2278.5,223.9197 c -133.7801,-4.1486 -246.4861,-42.4636 -340.5,-115.7549 -125.5558,-97.8807 -202.6791,-256.5747 -220.466,-453.6452 -4.795,-53.127 -4.7931,-115.6508 0.01,-169 12.65,-140.644 55.3979,-261.9992 125.4111,-356.02463 64.1428,-86.1416 152.5475,-149.498 256.0496,-183.5016 96.7929,-31.7993 219.2194,-39.3457 331,-20.4027 97.6291,16.5447 183.0519,55.4121 258,117.3901 15.6031,12.9029 48.3482,45.6361 61.5611,61.5388 85.6296,103.06103 134.1648,235.31343 146.6122,399.50003 1.7563,23.1667 1.7732,109.4745 0.026,132 -12.8299,165.3893 -60.9952,296.2682 -147.2147,400.0246 -20.4693,24.6327 -55.5112,57.7996 -81.9844,77.5977 -106.3242,79.5149 -231.8166,115.1366 -388.5,110.2778 z m 49.7076,-223.9205 c 120.0709,-6.6584 200.3412,-59.6671 251.7754,-166.2666 25.6257,-53.1105 40.1683,-111.3655 47.6088,-190.713 2.1334,-22.7514 3.0193,-95.7951 1.489,-122.7695 -5.0878,-89.6789 -22.1252,-160.9474 -53.1263,-222.2305 -41.3887,-81.8174 -103.6274,-131.83033 -186.8606,-150.15493 -57.4013,-12.6374 -127.5299,-11.2112 -181.0939,3.6829 -69.0582,19.2025 -121.8171,60.50663 -160.598,125.72973 -34.6498,58.2752 -54.7109,128.5784 -62.9892,220.7423 -2.1557,23.9995 -3.0172,92.916 -1.4966,119.7168 6.9809,123.0366 36.4583,215.0644 90.4436,282.3625 57.6317,71.8439 144.7758,106.0044 254.8478,99.9003 z M -22.178128,1362.769 V 729.76537 H 117.62575 257.42964 l 237.44611,413.48853 237.44612,413.4886 0.5,-413.2386 0.5,-413.23853 133.75077,-0.2537 133.75076,-0.2536 -0.2508,632.75373 -0.2508,632.7536 H 869.83874 739.35557 l -89.32055,-148.5 C 600.90872,1765.0904 489.97614,1580.65 403.51817,1436.8978 l -157.19629,-261.3675 -0.5,409.8675 -0.5,409.8676 -133.75001,0.2536 -133.749998,0.2537 z m 2398.000028,0 V 729.76897 l 262.25,0.01 c 261.5,0.01 292.6305,0.3466 328.25,3.5557 114.311,10.2985 199.4918,45.3013 256.9318,105.5791 50.4423,52.9345 78.9658,116.2391 87.0265,193.14593 5.8194,55.5218 0.8034,101.2746 -15.674,142.9694 -22.4792,56.8817 -60.7579,103.443 -115.8908,140.9669 l -9.6065,6.5382 7.6065,3.2774 c 59.6892,25.7183 114.2754,71.5943 144.6917,121.6035 20.6684,33.9821 33.1145,71.7019 39.5472,119.8544 3.0725,22.9992 3.3665,76.7688 0.5441,99.5 -10.9049,87.8263 -42.1572,153.9757 -98.1994,207.8514 -40.8009,39.2237 -94.0027,69.6719 -157.9771,90.4127 -57.6527,18.6913 -115.2951,27.5063 -194.5,29.744 -18.425,0.5205 -146.3375,0.9567 -284.25,0.9692 l -250.75,0.02 v -633 z m 533,405.9536 c 81.3898,-5.116 139.9854,-32.2311 171.6991,-79.4536 28.6421,-42.6489 30.6438,-113.4631 4.4101,-156.017 -25.5444,-41.4356 -75.3655,-66.1349 -153.6092,-76.1531 -11.4504,-1.4661 -29.8374,-1.7092 -154.25,-2.0391 l -141.25,-0.3746 v 157.5419 157.5419 h 128.25 c 77.2329,0 134.8136,-0.4173 144.75,-1.0418 z m 3.5,-536.9778 c 31.34,-2.2534 56.2435,-8.8487 79.372,-21.0206 35.4503,-18.6566 53.8064,-44.3792 61.3248,-85.935 2.8563,-15.7871 3.108,-50.1562 0.4644,-63.3942 -6.179,-30.9411 -19.6983,-53.7287 -42.1612,-71.06503 -10.616,-8.1931 -16.2163,-11.6323 -27.5437,-16.9143 -15.8083,-7.3717 -33.0418,-12.1895 -56.4563,-15.7832 -5.9528,-0.9136 -44.2744,-1.3183 -149.75,-1.5814 l -141.75,-0.3536 v 137.86913 c 0,75.8279 0.3,138.1691 0.6667,138.5357 1.0957,1.0958 260.2941,0.7598 275.8333,-0.3575 z m 1797.5,130.9831 V 729.68667 l 257.75,0.3692 c 275.4557,0.3946 265.6585,0.2267 304.4433,5.2151 60.3022,7.7558 110.7276,22.9487 163.0445,49.1245 84.9091,42.4826 146.4242,106.5013 180.6262,187.9776 30.3086,72.20123 38.6401,157.51213 23.0347,235.86683 -15.9486,80.0785 -55.2927,145.2628 -122.8987,203.6154 -16.1643,13.9519 -44.2613,33.6042 -64.5,45.1143 -11.231,6.3872 -34.1177,17.666 -46.2091,22.7723 -9.6085,4.0577 -10.1431,4.4354 -9.0866,6.4192 0.6175,1.1594 66.7835,115.6732 147.0356,254.4753 80.2521,138.802 146.1517,252.9895 146.4435,253.75 0.4501,1.1729 -21.3334,1.3826 -143.6101,1.3826 h -144.1408 l -2.2162,-3.7287 c -1.219,-2.0508 -61.0044,-105.8883 -132.8566,-230.75 l -130.6402,-227.0249 -79.6098,-0.256 -79.6097,-0.256 v 231.006 231.006 h -133.5 -133.5 v -633.0411 z m 498.9231,-65.0101 c 34.4297,-2.1844 60.8086,-8.7739 86.324,-21.564 28.4283,-14.2503 53.6426,-39.4763 66.6865,-66.7173 12.8762,-26.8911 18.7539,-61.7307 16.2242,-96.1681 -2.9995,-40.8338 -14.7337,-70.2055 -38.8394,-97.2179 -20.0108,-22.42733 -49.4628,-37.69393 -87.3184,-45.26543 -27.3522,-5.4707 -28.7416,-5.5197 -156.5,-5.5197 h -118 l -0.2567,165.50003 c -0.1412,91.025 -0.043,166.0625 0.2186,166.75 0.6146,1.6163 206.3336,1.7929 231.4612,0.1988 z m 3110.3261,65.3012 0.2508,-632.75003 h 255 c 268.7469,0 264.8984,-0.058 303.5,4.5602 72.3171,8.6516 138.532,30.7965 196.706,65.7863 102.3023,61.5315 162.3789,155.0542 178.9998,278.65353 1.3953,10.3758 1.7478,20.3679 1.7461,49.5 0,32.081 -0.2692,38.4576 -2.2088,52.6696 -5.8431,42.8141 -15.7869,76.2899 -33.2184,111.8304 -16.9115,34.4802 -35.8451,60.9458 -65.0081,90.8689 -40.0795,41.1242 -84.025,71.3531 -137.5166,94.5939 -6.6,2.8676 -12.1271,5.3386 -12.2824,5.4912 -0.1554,0.1527 66.1071,115.1002 147.25,255.4391 81.1428,140.3389 147.5324,255.3743 147.5324,255.6342 0,0.26 -64.7694,0.4727 -143.9319,0.4727 h -143.9319 l -1.9134,-2.75 c -1.0523,-1.5125 -60.9951,-105.4625 -133.2062,-231 l -131.2929,-228.2536 h -79.3618 -79.3619 v 231 231 h -134.0008 -134.0008 l 0.2508,-632.75 z m 517.2508,-66.6336 c 47.8942,-6.7407 84.7494,-23.8406 110.3442,-51.1969 24.9919,-26.7119 38.2979,-59.5894 41.0475,-101.4231 3.6333,-55.2779 -10.7881,-99.5265 -42.9788,-131.8708 -23.3257,-23.43703 -56.2117,-37.94833 -99.9129,-44.08763 -18.1243,-2.5462 -41.2707,-3.0245 -146.75,-3.0329 l -111.25,-0.01 v 167.06263 167.0624 l 118.75,-0.4079 c 104.582,-0.3593 120.1817,-0.6094 130.75,-2.0968 z m -2256.2818,673.13 c -3.6498,-5.3901 -4.4394,-6.75 -3.9188,-6.75 0.2296,0 2.0607,2.475 4.0692,5.5 2.0085,3.025 3.4439,5.5 3.1897,5.5 -0.2542,0 -1.7573,-1.9125 -3.3401,-4.25 z m 905.2385,-477.7581 c -27.6671,-1.6766 -40.8941,-10.4893 -46.9358,-31.272 l -1.6628,-5.7199 h -10.9291 -10.929 v -88 -88 h 408.5 408.5 v 11.429 11.4291 l 5.7199,1.6628 c 15.2815,4.4425 23.758,12.7151 28.4491,27.7649 2.9834,9.5714 4.1423,35.6089 3.5034,78.7142 -0.3057,20.625 -1.0446,40.329 -1.6419,43.7866 -3.7317,21.6024 -14.7875,32.8356 -36.7813,37.3716 -4.3616,0.8996 -93.6026,1.2313 -369.7492,1.3746 -200.2,0.1039 -369.4195,-0.1395 -376.0433,-0.5409 z m 793.3577,-969.24909 c -27.1238,-25.50814 -62.7476,-63.77131 -66.8391,-71.79123 -2.8496,-5.58568 -3.462,-12.76886 -1.6254,-19.06495 1.7019,-5.83418 6.9679,-14.81691 7.4408,-12.69253 0.1599,0.71821 2.8048,3.10583 5.8775,5.30583 3.0727,2.2 7.9802,6.63754 10.9057,9.86121 4.9249,5.42699 12.2025,17.77441 13.9327,23.63879 2.0432,6.9251 8.2089,21.28363 11.7941,27.46588 2.2218,3.83123 8.1515,12.38123 13.1771,19 13.9236,18.33764 21.4277,29.96191 20.1603,31.22934 -0.2801,0.28015 -6.9508,-5.5484 -14.8237,-12.95234 z"
       id="path133" />
  </g>
</svg>
