<?xml version="1.0" encoding="UTF-8" standalone="no"?>
<!-- Created with Inkscape (http://www.inkscape.org/) -->

<svg
   version="1.1"
   id="svg25"
   width="9342"
   height="3535"
   viewBox="0 0 9342 3535"
   sodipodi:docname="logo.svg"
   inkscape:version="1.1.2 (1:1.1+202202050950+0a00cf5339)"
   xmlns:inkscape="http://www.inkscape.org/namespaces/inkscape"
   xmlns:sodipodi="http://sodipodi.sourceforge.net/DTD/sodipodi-0.dtd"
   xmlns="http://www.w3.org/2000/svg"
   xmlns:svg="http://www.w3.org/2000/svg">
  <defs
     id="defs29" />
  <sodipodi:namedview
     id="namedview27"
     pagecolor="#ffffff"
     bordercolor="#666666"
     borderopacity="1.0"
     inkscape:pageshadow="2"
     inkscape:pageopacity="0.0"
     inkscape:pagecheckerboard="0"
     showgrid="false"
     inkscape:zoom="0.2103982"
     inkscape:cx="5834.1754"
     inkscape:cy="1402.1033"
     inkscape:window-width="1920"
     inkscape:window-height="1015"
     inkscape:window-x="0"
     inkscape:window-y="0"
     inkscape:window-maximized="1"
     inkscape:current-layer="g31" />
  <g
     inkscape:groupmode="layer"
     inkscape:label="Image"
     id="g31">
    <path
       style="fill:#000000"
       d="m 8516.3219,1998.542 c -5677.5479,-1332.36133 -2838.774,-666.1807 0,0 z m -1755.416,-368.4883 c -8.5214,26.8957 -31.2421,76.4959 -47.2788,103.2114 -45.0431,75.0375 -105.7002,134.4341 -179.3052,175.5792 -81.498,45.5572 -175.6613,72.7222 -285.5,82.3633 -42.0152,3.6879 -50.68,3.8232 -273.25,4.2695 l -220.75,0.4426 V 1362.8424 729.76507 l 205.25,0.02 c 226.5194,0.022 250.3464,0.4631 301.25,5.5816 126.9854,12.769 233.437,49.3718 317.9171,109.3144 96.8562,78.42991 161.0707,180.46673 209.5384,355.21503 18.7161,111.3991 16.5879,239.5044 -5.8101,349.7327 -6.7532,31.7297 -13.3839,57.4641 -22.0614,80.4249 z m -560.084,128.7958 c 73.5978,-6.4245 130.4538,-22.4852 176.1797,-49.7673 85.391,-50.9483 138.2209,-145.0931 152.251,-271.3168 10.2338,-92.07 2.3868,-189.7247 -20.7718,-258.5 -36.4324,-108.1953 -105.859,-172.1293 -216.0192,-198.92903 -53.4483,-13.0028 -90.6235,-15.8512 -200.6397,-15.3731 l -69.5,0.3021 -0.2558,396.50003 c -0.1407,218.075 -0.025,397.109 0.2582,397.8533 0.4287,1.1284 14.2629,1.2676 83.2558,0.8376 46.5997,-0.2905 88.2019,-0.9923 95.2418,-1.6068 z m 1165.5,240.4757 c -31.0219,-10.3751 -50.465,-18.3969 -80,-33.006 -27.7804,-13.7412 -44.562,-23.4551 -71,-41.098 -61.225,-40.8572 -118.4104,-95.186 -162.2668,-154.1614 -13.299,-17.8838 -50.7775,-74.5899 -60.0083,-90.7944 -42.3533,-74.351 -67.4482,-153.7657 -76.6295,-242.5 -5.3514,-51.7194 -4.5907,-117.7138 1.9597,-170 11.5456,-92.1591 41.5173,-177.7518 88.2419,-252 40.6717,-64.62993 98.0201,-126.05033 162.203,-173.72033 88.8006,-65.954 193.5922,-106.7898 311.2305,-121.2822 155.4703,-18.2884 331.4019,13.60878 452.6259,79.2155 17.8075,9.839 32.4962,19.084 67.1436,42.2598 53.9792,36.1069 78.8077,57.25 86.3436,73.5272 1.662,3.5898 2.0908,6.5268 2.1199,14.521 0.034,9.3711 -0.1795,10.4597 -3.2934,16.785 -5.9542,12.0947 -14.9311,22.2959 -58.9027,66.93593 -12.8626,13.0581 -26.2324,25.7728 -29.7106,28.2548 -21.312,15.2079 -38.149,13.1208 -65.0568,-8.0644 -19.2496,-15.1557 -36.6551,-27.9558 -48.5,-35.66723 -79.7477,-51.9179 -172.5914,-76.8211 -277.5,-74.4329 -105.629,2.4046 -193.8182,28.7292 -270.5,80.74483 -86.8451,58.9095 -149.8645,144.4836 -177.9007,241.5716 -13.7225,47.5201 -19.5867,91.2043 -19.5121,145.3514 0.1072,77.8147 14.4836,143.2509 45.3685,206.5 29.9214,61.276 77.8775,118.3194 136.164,161.9658 21.1616,15.8463 55.0295,32.4212 91.9917,45.0206 58.0505,19.7877 120.2659,28.8514 186.3886,27.1535 95.2312,-2.4454 175.8956,-24.7384 248.6333,-68.7142 26.3067,-15.9045 53.1287,-36.281 78.2564,-59.4509 l 13.6881,-12.6216 18.2728,17.517 c 15.4696,14.8298 19.1275,17.8367 23.8444,19.6016 9.2127,3.4469 18.7669,11.0571 42.6072,33.9379 51.4954,49.4228 61.4691,61.6039 63.6602,77.7488 0.8437,6.2168 -1.3366,15.7448 -5.0549,22.0895 -6.275,10.7074 -26.1083,28.0011 -56.4075,49.1844 -28.8573,20.1753 -53.4576,34.7235 -85.5,50.5634 -182.6344,79.9535 -385.0437,98.8308 -573,37.064 z m -5699,17.7585 c -80.1948,-1.5351 -155.5905,-15.7276 -220.3875,-41.4858 -90.2856,-35.8904 -167.881,-95.2056 -225.4433,-172.3325 -69.3155,-92.8748 -111.767,-212.4694 -125.124,-352.5 -5.0702,-53.1551 -5.057,-122.0778 0.034,-176.5 18.6253,-199.1017 98.2569,-358.32763 227.9207,-455.73473 45.9119,-34.4903 100.9735,-63.017 155.5,-80.5624 47.1226,-15.163 94.2746,-23.8622 153.5,-28.3194 20.7539,-1.562 80.2389,-1.5764 102,-0.025 107.7086,7.6797 193.6465,34.1666 273.7874,84.3838 128.5922,80.5774 214.4578,213.89403 250.0661,388.25743 23.742,116.2583 23.427,249.7443 -0.8616,365.0975 -35.2427,167.3775 -116.1021,295.6173 -236.9919,375.8599 -23.6463,15.6956 -37.1674,23.5018 -61.2929,35.3864 -62.1972,30.6392 -128.9672,48.6612 -206.1515,55.6424 -21.9528,1.9856 -62.121,3.3 -86.5556,2.8322 z m 39.5,-224.3379 c 102.5084,-5.8022 174.7581,-44.7877 226.9865,-122.4804 49.573,-73.7428 75.0032,-178.002 75.0032,-307.5 0,-138.3344 -29.0163,-247.8048 -85.4566,-322.4032 -47.3775,-62.62023 -111.1284,-97.30573 -194.9398,-106.06293 -70.8291,-7.4006 -139.5731,2.9186 -190.978,28.6681 -39.7773,19.925 -74.8962,51.46483 -101.5446,91.19573 -42.8901,63.9461 -67.6274,148.5592 -73.9966,253.1023 -4.4691,73.3554 -0.1485,145.7346 12.4173,208.0186 15.5607,77.1285 43.7772,138.9147 85.295,186.7723 32.373,37.3164 74.6161,63.9342 124.0404,78.159 36.7329,10.5722 80.0031,14.9741 123.1732,12.5305 z m 2278.5,223.9197 c -133.7801,-4.1486 -246.4861,-42.4636 -340.5,-115.7549 -125.5558,-97.8807 -202.6791,-256.5747 -220.466,-453.6452 -4.795,-53.127 -4.7931,-115.6508 0.01,-169 12.65,-140.644 55.3979,-261.9992 125.4111,-356.02463 64.1428,-86.1416 152.5475,-149.498 256.0496,-183.5016 96.7929,-31.7993 219.2194,-39.3457 331,-20.4027 97.6291,16.5447 183.0519,55.4121 258,117.3901 15.6031,12.9029 48.3482,45.6361 61.5611,61.5388 85.6296,103.06103 134.1648,235.31343 146.6122,399.50003 1.7563,23.1667 1.7732,109.4745 0.026,132 -12.8299,165.3893 -60.9952,296.2682 -147.2147,400.0246 -20.4693,24.6327 -55.5112,57.7996 -81.9844,77.5977 -106.3242,79.5149 -231.8166,115.1366 -388.5,110.2778 z m 49.7076,-223.9205 c 120.0709,-6.6584 200.3412,-59.6671 251.7754,-166.2666 25.6257,-53.1105 40.1683,-111.3655 47.6088,-190.713 2.1334,-22.7514 3.0193,-95.7951 1.489,-122.7695 -5.0878,-89.6789 -22.1252,-160.9474 -53.1263,-222.2305 -41.3887,-81.8174 -103.6274,-131.83033 -186.8606,-150.15493 -57.4013,-12.6374 -127.5299,-11.2112 -181.0939,3.6829 -69.0582,19.2025 -121.8171,60.50663 -160.598,125.72973 -34.6498,58.2752 -54.7109,128.5784 -62.9892,220.7423 -2.1557,23.9995 -3.0172,92.916 -1.4966,119.7168 6.9809,123.0366 36.4583,215.0644 90.4436,282.3625 57.6317,71.8439 144.7758,106.0044 254.8478,99.9003 z M -22.178128,1362.769 V 729.76537 H 117.62575 257.42964 l 237.44611,413.48853 237.44612,413.4886 0.5,-413.2386 0.5,-413.23853 133.75077,-0.2537 133.75076,-0.2536 -0.2508,632.75373 -0.2508,632.7536 H 869.83874 739.35557 l -89.32055,-148.5 C 600.90872,1765.0904 489.97614,1580.65 403.51817,1436.8978 l -157.19629,-261.3675 -0.5,409.8675 -0.5,409.8676 -133.75001,0.2536 -133.749998,0.2537 z m 2398.000028,0 V 729.76897 l 262.25,0.01 c 261.5,0.01 292.6305,0.3466 328.25,3.5557 114.311,10.2985 199.4918,45.3013 256.9318,105.5791 50.4423,52.9345 78.9658,116.2391 87.0265,193.14593 5.8194,55.5218 0.8034,101.2746 -15.674,142.9694 -22.4792,56.8817 -60.7579,103.443 -115.8908,140.9669 l -9.6065,6.5382 7.6065,3.2774 c 59.6892,25.7183 114.2754,71.5943 144.6917,121.6035 20.6684,33.9821 33.1145,71.7019 39.5472,119.8544 3.0725,22.9992 3.3665,76.7688 0.5441,99.5 -10.9049,87.8263 -42.1572,153.9757 -98.1994,207.8514 -40.8009,39.2237 -94.0027,69.6719 -157.9771,90.4127 -57.6527,18.6913 -115.2951,27.5063 -194.5,29.744 -18.425,0.5205 -146.3375,0.9567 -284.25,0.9692 l -250.75,0.02 v -633 z m 533,405.9536 c 81.3898,-5.116 139.9854,-32.2311 171.6991,-79.4536 28.6421,-42.6489 30.6438,-113.4631 4.4101,-156.017 -25.5444,-41.4356 -75.3655,-66.1349 -153.6092,-76.1531 -11.4504,-1.4661 -29.8374,-1.7092 -154.25,-2.0391 l -141.25,-0.3746 v 157.5419 157.5419 h 128.25 c 77.2329,0 134.8136,-0.4173 144.75,-1.0418 z m 3.5,-536.9778 c 31.34,-2.2534 56.2435,-8.8487 79.372,-21.0206 35.4503,-18.6566 53.8064,-44.3792 61.3248,-85.935 2.8563,-15.7871 3.108,-50.1562 0.4644,-63.3942 -6.179,-30.9411 -19.6983,-53.7287 -42.1612,-71.06503 -10.616,-8.1931 -16.2163,-11.6323 -27.5437,-16.9143 -15.8083,-7.3717 -33.0418,-12.1895 -56.4563,-15.7832 -5.9528,-0.9136 -44.2744,-1.3183 -149.75,-1.5814 l -141.75,-0.3536 v 137.86913 c 0,75.8279 0.3,138.1691 0.6667,138.5357 1.0957,1.0958 260.2941,0.7598 275.8333,-0.3575 z m 1797.5,130.9831 V 729.68667 l 257.75,0.3692 c 275.4557,0.3946 265.6585,0.2267 304.4433,5.2151 60.3022,7.7558 110.7276,22.9487 163.0445,49.1245 84.9091,42.4826 146.4242,106.5013 180.6262,187.9776 30.3086,72.20123 38.6401,157.51213 23.0347,235.86683 -15.9486,80.0785 -55.2927,145.2628 -122.8987,203.6154 -16.1643,13.9519 -44.2613,33.6042 -64.5,45.1143 -11.231,6.3872 -34.1177,17.666 -46.2091,22.7723 -9.6085,4.0577 -10.1431,4.4354 -9.0866,6.4192 0.6175,1.1594 66.7835,115.6732 147.0356,254.4753 80.2521,138.802 146.1517,252.9895 146.4435,253.75 0.4501,1.1729 -21.3334,1.3826 -143.6101,1.3826 h -144.1408 l -2.2162,-3.7287 c -1.219,-2.0508 -61.0044,-105.8883 -132.8566,-230.75 l -130.6402,-227.0249 -79.6098,-0.256 -79.6097,-0.256 v 231.006 231.006 h -133.5 -133.5 v -633.0411 z m 498.9231,-65.0101 c 34.4297,-2.1844 60.8086,-8.7739 86.324,-21.564 28.4283,-14.2503 53.6426,-39.4763 66.6865,-66.7173 12.8762,-26.8911 18.7539,-61.7307 16.2242,-96.1681 -2.9995,-40.8338 -14.7337,-70.2055 -38.8394,-97.2179 -20.0108,-22.42733 -49.4628,-37.69393 -87.3184,-45.26543 -27.3522,-5.4707 -28.7416,-5.5197 -156.5,-5.5197 h -118 l -0.2567,165.50003 c -0.1412,91.025 -0.043,166.0625 0.2186,166.75 0.6146,1.6163 206.3336,1.7929 231.4612,0.1988 z m 3110.3261,65.3012 0.2508,-632.75003 h 255 c 268.7469,0 264.8984,-0.058 303.5,4.5602 72.3171,8.6516 138.532,30.7965 196.706,65.7863 102.3023,61.5315 162.3789,155.0542 178.9998,278.65353 1.3953,10.3758 1.7478,20.3679 1.7461,49.5 0,32.081 -0.2692,38.4576 -2.2088,52.6696 -5.8431,42.8141 -15.7869,76.2899 -33.2184,111.8304 -16.9115,34.4802 -35.8451,60.9458 -65.0081,90.8689 -40.0795,41.1242 -84.025,71.3531 -137.5166,94.5939 -6.6,2.8676 -12.1271,5.3386 -12.2824,5.4912 -0.1554,0.1527 66.1071,115.1002 147.25,255.4391 81.1428,140.3389 147.5324,255.3743 147.5324,255.6342 0,0.26 -64.7694,0.4727 -143.9319,0.4727 h -143.9319 l -1.9134,-2.75 c -1.0523,-1.5125 -60.9951,-105.4625 -133.2062,-231 l -131.2929,-228.2536 h -79.3618 -79.3619 v 231 231 h -134.0008 -134.0008 l 0.2508,-632.75 z m 517.2508,-66.6336 c 47.8942,-6.7407 84.7494,-23.8406 110.3442,-51.1969 24.9919,-26.7119 38.2979,-59.5894 41.0475,-101.4231 3.6333,-55.2779 -10.7881,-99.5265 -42.9788,-131.8708 -23.3257,-23.43703 -56.2117,-37.94833 -99.9129,-44.08763 -18.1243,-2.5462 -41.2707,-3.0245 -146.75,-3.0329 l -111.25,-0.01 v 167.06263 167.0624 l 118.75,-0.4079 c 104.582,-0.3593 120.1817,-0.6094 130.75,-2.0968 z m -1351.0433,195.3719 c -62.6723,-12.2964 -71.6924,-66.9474 -70.4567,-124.9919 29.4792,-181.0038 817,-115.0247 817,-65.1419 l 5.7199,1.6628 c 15.2815,4.4425 23.758,12.7151 28.4491,27.7649 2.9834,9.5714 4.1423,35.6089 3.5034,78.7142 -0.3057,20.625 -1.0446,40.329 -1.6419,43.7866 -3.7317,21.6024 -14.7875,32.8356 -36.7813,37.3716 -4.3616,0.8996 -93.6026,1.2313 -369.7492,1.3746 -200.2,0.1039 -369.4195,-0.1395 -376.0433,-0.5409 z"
       id="path133"
       sodipodi:nodetypes="cccsssscccssccccsssssscsssscssssssssccsssssssssssssssssscssssssccsssssssscssssssssssssssssssssssscsssssscssssssssssssssssccccccccccccccssccccccccsssssscssssssscccccsssscccsccsssssssscsssccsssssssssssscscccccccccccssscsscssccccsssscsssssssscsscccccccccsssssscccssscccssssssc" />
  </g>
</svg>
