<?xml version="1.0" encoding="UTF-8" standalone="no"?>
<!-- Created with Inkscape (http://www.inkscape.org/) -->

<svg
   version="1.1"
   id="svg2"
   width="398.99631"
   height="448.73264"
   viewBox="0 0 398.99631 448.73264"
   sodipodi:docname="noun-electrician-report-2202989o.png.svg"
   inkscape:version="1.1.2 (1:1.1+202202050950+0a00cf5339)"
   xmlns:inkscape="http://www.inkscape.org/namespaces/inkscape"
   xmlns:sodipodi="http://sodipodi.sourceforge.net/DTD/sodipodi-0.dtd"
   xmlns="http://www.w3.org/2000/svg"
   xmlns:svg="http://www.w3.org/2000/svg">
  <defs
     id="defs6" />
  <sodipodi:namedview
     id="namedview4"
     pagecolor="#ffffff"
     bordercolor="#666666"
     borderopacity="1.0"
     inkscape:pageshadow="2"
     inkscape:pageopacity="0.0"
     inkscape:pagecheckerboard="0"
     showgrid="false"
     inkscape:zoom="0.95468545"
     inkscape:cx="120.45852"
     inkscape:cy="241.96451"
     inkscape:window-width="1920"
     inkscape:window-height="1015"
     inkscape:window-x="0"
     inkscape:window-y="0"
     inkscape:window-maximized="1"
     inkscape:current-layer="g8" />
  <g
     inkscape:groupmode="layer"
     inkscape:label="Image"
     id="g8"
     transform="translate(-335.13461,-161.88451)">
    <path
       style="fill:#ff6600;stroke:#ff6600"
       d="m 337.3001,608.42891 c -1.54339,-1.70543 -1.66549,-18.007 -1.66549,-222.35662 0,-212.92738 0.0634,-220.57363 1.84168,-222.18297 1.70573,-1.54366 14.01525,-1.64738 166.75,-1.40499 l 164.90832,0.26171 5.66054,2.77978 c 10.97853,5.39134 16.93319,14.63797 17.63283,27.38093 l 0.44806,8.1607 14.62928,0.35561 c 16.2778,0.39569 19.17442,1.2731 23.30045,7.05789 2.27541,3.19018 2.33564,3.86617 2.62518,29.46409 0.27291,24.12794 0.14554,26.49948 -1.61124,30 -1.86141,3.70899 -1.86266,3.87362 -0.0516,6.801 1.68081,2.71685 1.85648,5.41039 1.86125,28.53856 0.005,22.70519 -0.19615,25.93361 -1.81015,29.09937 -1.75387,3.44013 -1.75387,3.67555 0,6.94584 1.61832,3.01753 1.815,6.15513 1.81167,28.90063 -0.003,23.6306 -0.14941,25.75452 -1.97564,28.74972 -1.96576,3.22404 -1.9656,3.24481 0.0508,6.66242 1.91558,3.24668 2.007,4.83304 1.72564,29.94487 -0.33745,30.11823 -0.32485,30.06904 -8.81753,34.40859 -3.93547,2.01092 -5.86517,2.25 -18.16087,2.25 h -13.75751 l -0.2806,58.75 -0.28059,58.75 -2.29331,4.29506 c -3.53466,6.61993 -8.82968,11.87237 -15.04615,14.92516 l -5.66051,2.77978 -165.08451,0.26161 c -159.22284,0.25231 -165.14364,0.19626 -166.75,-1.57874 z m 46.33451,-222.18287 v -213 h -18.5 -18.5 v 213 213 h 18.5 18.5 z m 283.27733,211.93987 c 4.72928,-1.31333 10.24581,-6.08482 12.78158,-11.05535 1.90201,-3.72825 1.94109,-7.77215 1.94109,-200.88452 0,-193.11236 -0.0391,-197.15627 -1.94109,-200.88452 -2.53577,-4.97053 -8.0523,-9.74202 -12.78158,-11.05535 -2.54901,-0.70787 -47.43285,-1.05079 -138.02733,-1.05455 l -134.25,-0.006 v 213 213 l 134.25,-0.006 c 90.59448,-0.004 135.47832,-0.34668 138.02733,-1.05455 z M 468.83461,532.04604 c -0.66,-0.66 -1.2,-2.71981 -1.2,-4.57736 0,-3.00407 14.26848,-100.35626 15.53194,-105.97264 l 0.50616,-2.25 h -17.44762 c -19.23271,0 -20.59048,-0.39959 -20.59048,-6.05974 0,-1.60428 3.62418,-34.53464 8.05372,-73.17857 5.99479,-52.29921 8.4325,-70.64517 9.53533,-71.76169 1.28285,-1.29877 10.49847,-1.53307 68.69628,-1.74653 72.33484,-0.26531 71.91042,-0.29348 72.51123,4.81386 0.1828,1.55397 -7.58481,21.06763 -20.25,50.8717 -11.30061,26.5929 -20.54656,48.73553 -20.54656,49.20585 0,0.47031 14.81786,0.85512 32.92857,0.85512 35.66397,0 36.07143,0.0614 36.07143,5.43819 0,1.72395 -19.55513,21.37195 -78.55551,78.92858 -81.90327,79.89906 -81.30663,79.37109 -85.24449,75.43323 z m 90.6431,-96.27144 53.34309,-52.02856 -29.94128,-0.5 c -32.13633,-0.53666 -33.24491,-0.7267 -33.24491,-5.6993 0,-1.34992 9.03879,-23.68232 20.0862,-49.62755 11.04741,-25.94523 20.32055,-47.73565 20.60699,-48.42315 0.41323,-0.99184 -11.78952,-1.25 -59.0862,-1.25 -51.47217,0 -59.60699,0.19838 -59.60699,1.45363 0,0.79949 -3.15,28.94536 -7,62.54637 -3.85,33.60101 -7,62.19688 -7,63.54637 v 2.45363 h 17 c 15.9203,0 17.13298,0.13298 19.09371,2.09371 1.58082,1.58082 1.95355,2.86689 1.52155,5.25 -0.31469,1.73596 -3.51729,22.95629 -7.11689,47.15629 -3.59961,24.2 -6.81632,45.35 -7.14825,47 -0.6921,3.44038 -6.09574,8.53275 78.49298,-73.97144 z m 160.93439,21.91474 c 2.19057,-1.53433 2.22251,-1.89797 2.22251,-25.3 0,-17.13368 -0.33405,-24.07735 -1.2,-24.9433 -0.81739,-0.81739 -5.6,-1.2 -15,-1.2 h -13.8 v 25.83333 c 0,14.20834 0.3,26.13334 0.66667,26.5 0.36666,0.36667 6.11654,0.66667 12.77749,0.66667 9.34278,0 12.6188,-0.3558 14.33333,-1.5567 z m 1.02251,-64.6433 c 0.86604,-0.86604 1.2,-7.8171 1.2,-24.97695 v -23.77694 l -2.373,-1.55486 c -1.89105,-1.23906 -4.88677,-1.49761 -14.75,-1.27305 l -12.377,0.2818 -0.2666,26.25 -0.26661,26.25 h 13.81661 c 9.41291,0 14.19907,-0.38247 15.0166,-1.2 z m -0.62874,-64.45499 c 1.67186,-1.51301 1.82874,-3.65149 1.82874,-24.92857 0,-19.82447 -0.23288,-23.50647 -1.57143,-24.84501 -1.27254,-1.27254 -4.12554,-1.57143 -15,-1.57143 h -13.42857 v 26.5 26.5 h 13.17126 c 10.85267,0 13.49318,-0.29133 15,-1.65499 z m -0.39377,-63.90171 c 2.19135,-1.53488 2.22251,-1.89207 2.22251,-25.47695 v -23.92024 l -2.373,-1.55486 c -1.89105,-1.23906 -4.88677,-1.49761 -14.75,-1.27305 l -12.377,0.2818 -0.26766,25.48279 c -0.14721,14.01553 -0.0488,26.05303 0.21861,26.75 0.77052,2.00792 24.40397,1.75756 27.32654,-0.28949 z"
       id="path30"
       sodipodi:nodetypes="sssscsscssssscsscssssscccsscssccccccccccssssscccsccssscssssssssssssscsssssssscsssssssssscsssssscsscccsssssscccsssscsscscs" />
    <path
       style="fill:#e96111;stroke:#e96111;stroke-width:0.714318;stroke-opacity:1;fill-opacity:1"
       d="m 342.39543,609.02538 c -2.42316,-0.23474 -4.67316,-0.69458 -4.99999,-1.02185 -1.1686,-1.17014 -1.74257,-117.77224 -1.36137,-276.56018 0.21316,-88.78967 0.59099,-162.6635 0.83963,-164.16405 0.33513,-2.0225 0.93853,-2.94644 2.33251,-3.57159 1.43166,-0.64204 41.068,-0.79908 166.08179,-0.65801 l 164.20137,0.18529 5.00719,2.63121 c 11.74328,6.17092 17.67717,16.43784 17.67717,30.58532 0,5.46935 -0.36435,5.31806 12.85772,5.33884 10.9085,0.0171 17.93535,0.93764 21.06248,2.75915 1.17318,0.68336 3.10184,2.62028 4.2859,4.30427 l 2.15284,3.06179 0.22631,25.98007 c 0.2175,24.97063 0.16893,26.10974 -1.25006,29.31761 -1.82684,4.12987 -1.82565,4.32767 0.0515,8.57125 1.4648,3.31141 1.52703,4.45741 1.50803,27.7706 -0.019,23.32011 -0.0844,24.48686 -1.59622,28.46954 l -1.57639,4.15289 1.4083,3.34745 c 1.18667,2.82065 1.47377,5.65199 1.82432,17.99097 0.56244,19.79791 -0.26079,36.98632 -1.88235,39.30141 -1.58319,2.26032 -1.53146,4.06061 0.2151,7.48639 1.34021,2.62875 1.42775,4.19653 1.41427,25.33073 -0.0153,23.93864 -0.54639,30.63284 -2.66293,33.56268 -0.72456,1.00297 -3.36143,2.86827 -5.85973,4.14511 l -4.54236,2.32153 h -13.77379 -13.77379 l -0.22315,59.10978 -0.22315,59.10978 -2.8226,4.64307 c -3.7887,6.23226 -9.07574,11.27462 -15.19128,14.48824 l -5.05321,2.65538 -160.97415,-0.10893 c -88.53579,-0.0599 -162.95674,-0.30099 -165.37991,-0.53574 z m 41.90742,-222.57957 v -213.2238 h -18.92941 -18.92942 v 213.2238 213.22379 h 18.92942 18.92941 z M 668.1506,598.18692 c 3.28074,-1.1303 9.00461,-6.09298 11.28705,-9.78605 1.58713,-2.56803 1.64091,-3.27702 2.12428,-28.00587 0.62994,-32.22776 0.63552,-315.77722 0.007,-348.59984 l -0.47202,-24.64396 -1.96114,-3.34042 c -2.12454,-3.61824 -5.79077,-6.97725 -9.79263,-8.97175 -2.38408,-1.18822 -10.27581,-1.27121 -138.7839,-1.45949 L 394.3033,173.17991 v 213.32051 213.3205 l 135.54176,-0.3409 c 110.39292,-0.27765 136.05456,-0.51758 138.30554,-1.2931 z m 52.05867,-140.12537 c 1.17038,-0.76708 2.07044,-2.15832 2.34575,-3.62586 0.2457,-1.30966 0.34108,-12.2255 0.21196,-24.25742 -0.17945,-16.72284 -0.45312,-22.09475 -1.16173,-22.80389 -0.68229,-0.68281 -4.689,-0.98581 -15.17925,-1.1479 l -14.25227,-0.22021 v 21.00623 c 0,11.55342 0.20651,23.44919 0.4589,26.43504 0.40139,4.74837 0.6476,5.47041 1.96437,5.76078 0.82802,0.18258 6.50222,0.2793 12.60935,0.21493 9.21933,-0.0972 11.42617,-0.3283 13.00292,-1.3617 z m 1.39459,-64.68595 c 0.71565,-0.71514 0.98083,-6.47319 1.15731,-25.13023 l 0.22896,-24.20252 -1.98036,-1.29952 c -1.69397,-1.1116 -3.85383,-1.33157 -14.93533,-1.52105 l -12.95497,-0.22154 -0.47141,18.79379 c -0.25927,10.33658 -0.47207,22.44355 -0.47287,26.90439 l -0.001,8.1106 14.25088,-0.25311 c 10.45119,-0.18562 14.49841,-0.50046 15.17925,-1.18081 z m -0.34553,-64.63529 c 1.1517,-1.15218 1.2959,-3.24194 1.50336,-21.78669 0.26754,-23.91485 -0.0219,-27.63894 -2.24555,-28.89938 -1.03006,-0.58384 -6.07973,-0.96752 -14.94896,-1.13583 l -13.39345,-0.25417 v 26.89626 26.89627 l 13.90536,-0.22102 c 12.20904,-0.19407 14.06076,-0.37649 15.17924,-1.49544 z m -1.73917,-63.31209 c 1.08197,-0.41137 2.28289,-1.57824 2.66871,-2.59305 0.40675,-1.06982 0.70151,-11.57249 0.70151,-24.99558 v -23.15047 l -1.96437,-0.99268 c -3.07089,-1.55185 -8.69782,-1.99427 -18.66914,-1.46786 l -9.18664,0.48499 -0.46769,22.93469 c -0.25722,12.61408 -0.21439,24.54192 0.0952,26.50629 0.52924,3.35816 0.71185,3.60105 3.05579,4.06467 3.53529,0.69926 21.41183,0.10429 23.76665,-0.791 z"
       id="path4169" />
    <path
       style="fill:#ff6600;stroke:#ff6600;stroke-width:0.0054162"
       d="m 383.63999,568.51371 v -3.62885 h 0.15165 0.15165 v 3.62885 3.62885 h -0.15165 -0.15165 z"
       id="path4208" />
  </g>
</svg>
