<?xml version="1.0" encoding="UTF-8" standalone="no"?>
<!-- Creator: CorelDRAW 2017 -->

<svg
   xml:space="preserve"
   width="193.25134mm"
   height="108.42286mm"
   version="1.1"
   style="clip-rule:evenodd;fill-rule:evenodd;image-rendering:optimizeQuality;shape-rendering:geometricPrecision;text-rendering:geometricPrecision"
   viewBox="0 0 19325.134 10842.286"
   id="svg12"
   sodipodi:docname="logo-mobile.svg"
   inkscape:version="1.1.2 (1:1.1+202202050950+0a00cf5339)"
   xmlns:inkscape="http://www.inkscape.org/namespaces/inkscape"
   xmlns:sodipodi="http://sodipodi.sourceforge.net/DTD/sodipodi-0.dtd"
   xmlns="http://www.w3.org/2000/svg"
   xmlns:svg="http://www.w3.org/2000/svg"><sodipodi:namedview
   id="namedview14"
   pagecolor="#ffffff"
   bordercolor="#666666"
   borderopacity="1.0"
   inkscape:pageshadow="2"
   inkscape:pageopacity="0.0"
   inkscape:pagecheckerboard="0"
   inkscape:document-units="mm"
   showgrid="false"
   inkscape:zoom="0.44538786"
   inkscape:cx="144.8176"
   inkscape:cy="222.27817"
   inkscape:window-width="1920"
   inkscape:window-height="1015"
   inkscape:window-x="0"
   inkscape:window-y="0"
   inkscape:window-maximized="1"
   inkscape:current-layer="Layer_x0020_1" />
 <defs
   id="defs4">
  <style
   type="text/css"
   id="style2">
   <![CDATA[
    .fil0 {fill:#E96111}
   ]]>
  </style>
 </defs>
 <g
   id="Layer_x0020_1"
   inkscape:label="Layer 1"
   inkscape:groupmode="layer"
   transform="translate(-1152.422,-10184.844)">
  <metadata
   id="CorelCorpID_0Corel-Layer" />
  
  <g
   id="g26"><path
     class="fil0"
     d="m 1152.422,21016.761 2418.493,-2.619 14.385,-6964.639 c 431.522,539.722 948.942,1471.716 1338.89,2082.601 l 2662.722,4182.979 c 410.575,660.501 234.794,699.143 1035.29,701.736 590.794,1.912 1183.951,3.089 1774.867,-1.016 l -1.404,-10789.232 -2416.874,2.544 -15.26,7019.172 c -418.845,-534.885 -934.109,-1524.649 -1310.83,-2138.814 -433.828,-707.266 -862.518,-1417.337 -1294.877,-2125.406 -435.793,-713.692 -868.002,-1429.481 -1303.435,-2143.386 -441.145,-723.264 -204.264,-614.929 -1128.498,-614.146 -591.148,0.5 -1182.317,0.05 -1773.469,0.05 z"
     id="path7"
     style="stroke-width:0.331902;image-rendering:auto" /><path
     class="fil0"
     d="m 13895.678,19089.385 0.266,-2687.298 c 801.668,-7.903 2023.8,-63.362 2776.574,35.598 805.244,105.861 1465.903,445.144 1447.186,1301.06 -17.381,794.83 -666.548,1200.042 -1433.112,1312.911 -700.016,103.068 -2039.121,51.595 -2790.914,37.729 z m 7.57,-4581.51 -8.424,-2342.085 c 323.752,-63.585 2091.008,-37.777 2499.516,-13.611 751.711,44.472 1306.943,414.583 1295.147,1172.613 -11.936,766.942 -504.459,1126.921 -1283.058,1178.04 -754.833,49.554 -1730.195,13.531 -2503.181,5.043 z m -2359.942,-2984.095 -0.372,9475.951 c 1493.86,37.287 3225.804,30.725 4715.624,14.308 2401.112,-26.456 4453.948,-1075.142 4197.251,-3559.569 -184.52,-1785.885 -1676.775,-2023.463 -1714.123,-2187.16 0.322,-38.126 459.992,-356.841 513.874,-407.776 584.73,-552.711 806.044,-1179.968 741.449,-1967.184 -75.536,-920.562 -564.062,-1749.851 -1432.651,-2200.61 -1015.531,-527.016 -2154.038,-467.085 -3272.704,-467.085 -1036.431,0 -2797.5,-99.083 -3748.074,15.379 z"
     id="path9"
     style="stroke-width:0.331902" /></g>
 </g>
</svg>
